G04 EAGLE Gerber RS-274X export*
G75*
%MOMM*%
%FSLAX34Y34*%
%LPD*%
%AMOC8*
5,1,8,0,0,1.08239X$1,22.5*%
G01*
%ADD10C,0.222250*%
%ADD11C,0.158750*%
%ADD12R,0.600000X1.350000*%
%ADD13R,1.200000X2.000000*%
%ADD14R,2.209800X0.609600*%


D10*
X96134Y847876D02*
X89466Y847876D01*
X89466Y854544D01*
X96134Y854544D01*
X96134Y847876D01*
X96134Y849988D02*
X89466Y849988D01*
X89466Y852100D02*
X96134Y852100D01*
X96134Y854212D02*
X89466Y854212D01*
X104706Y847876D02*
X111374Y847876D01*
X104706Y847876D02*
X104706Y854544D01*
X111374Y854544D01*
X111374Y847876D01*
X111374Y849988D02*
X104706Y849988D01*
X104706Y852100D02*
X111374Y852100D01*
X111374Y854212D02*
X104706Y854212D01*
D11*
X169794Y894604D02*
X169794Y899366D01*
X176206Y899366D01*
X176206Y894604D01*
X169794Y894604D01*
X169794Y896113D02*
X176206Y896113D01*
X176206Y897622D02*
X169794Y897622D01*
X169794Y899131D02*
X176206Y899131D01*
X169794Y885396D02*
X169794Y880634D01*
X169794Y885396D02*
X176206Y885396D01*
X176206Y880634D01*
X169794Y880634D01*
X169794Y882143D02*
X176206Y882143D01*
X176206Y883652D02*
X169794Y883652D01*
X169794Y885161D02*
X176206Y885161D01*
X23794Y894604D02*
X23794Y899366D01*
X30206Y899366D01*
X30206Y894604D01*
X23794Y894604D01*
X23794Y896113D02*
X30206Y896113D01*
X30206Y897622D02*
X23794Y897622D01*
X23794Y899131D02*
X30206Y899131D01*
X23794Y885396D02*
X23794Y880634D01*
X23794Y885396D02*
X30206Y885396D01*
X30206Y880634D01*
X23794Y880634D01*
X23794Y882143D02*
X30206Y882143D01*
X30206Y883652D02*
X23794Y883652D01*
X23794Y885161D02*
X30206Y885161D01*
D12*
X160000Y948000D03*
X150000Y948000D03*
X140000Y948000D03*
X130000Y948000D03*
D13*
X117000Y984750D03*
X173000Y984750D03*
D10*
X164072Y886070D02*
X164072Y879402D01*
X157404Y879402D01*
X157404Y886070D01*
X164072Y886070D01*
X164072Y881514D02*
X157404Y881514D01*
X157404Y883626D02*
X164072Y883626D01*
X164072Y885738D02*
X157404Y885738D01*
X164072Y894642D02*
X164072Y901310D01*
X164072Y894642D02*
X157404Y894642D01*
X157404Y901310D01*
X164072Y901310D01*
X164072Y896754D02*
X157404Y896754D01*
X157404Y898866D02*
X164072Y898866D01*
X164072Y900978D02*
X157404Y900978D01*
X43764Y885276D02*
X43764Y878608D01*
X37096Y878608D01*
X37096Y885276D01*
X43764Y885276D01*
X43764Y880720D02*
X37096Y880720D01*
X37096Y882832D02*
X43764Y882832D01*
X43764Y884944D02*
X37096Y884944D01*
X43764Y893848D02*
X43764Y900516D01*
X43764Y893848D02*
X37096Y893848D01*
X37096Y900516D01*
X43764Y900516D01*
X43764Y895960D02*
X37096Y895960D01*
X37096Y898072D02*
X43764Y898072D01*
X43764Y900184D02*
X37096Y900184D01*
X85094Y903974D02*
X91762Y903974D01*
X91762Y897306D01*
X85094Y897306D01*
X85094Y903974D01*
X85094Y899418D02*
X91762Y899418D01*
X91762Y901530D02*
X85094Y901530D01*
X85094Y903642D02*
X91762Y903642D01*
X76522Y903974D02*
X69854Y903974D01*
X76522Y903974D02*
X76522Y897306D01*
X69854Y897306D01*
X69854Y903974D01*
X69854Y899418D02*
X76522Y899418D01*
X76522Y901530D02*
X69854Y901530D01*
X69854Y903642D02*
X76522Y903642D01*
X85316Y889178D02*
X91984Y889178D01*
X91984Y882510D01*
X85316Y882510D01*
X85316Y889178D01*
X85316Y884622D02*
X91984Y884622D01*
X91984Y886734D02*
X85316Y886734D01*
X85316Y888846D02*
X91984Y888846D01*
X76744Y889178D02*
X70076Y889178D01*
X76744Y889178D02*
X76744Y882510D01*
X70076Y882510D01*
X70076Y889178D01*
X70076Y884622D02*
X76744Y884622D01*
X76744Y886734D02*
X70076Y886734D01*
X70076Y888846D02*
X76744Y888846D01*
D14*
X40684Y832508D03*
X40684Y819808D03*
X40684Y807108D03*
X40684Y794408D03*
X107994Y794408D03*
X107994Y807108D03*
X107994Y819808D03*
X107994Y832508D03*
D10*
X19618Y810252D02*
X19618Y803584D01*
X12950Y803584D01*
X12950Y810252D01*
X19618Y810252D01*
X19618Y805696D02*
X12950Y805696D01*
X12950Y807808D02*
X19618Y807808D01*
X19618Y809920D02*
X12950Y809920D01*
X19618Y818824D02*
X19618Y825492D01*
X19618Y818824D02*
X12950Y818824D01*
X12950Y825492D01*
X19618Y825492D01*
X19618Y820936D02*
X12950Y820936D01*
X12950Y823048D02*
X19618Y823048D01*
X19618Y825160D02*
X12950Y825160D01*
D12*
X70000Y948000D03*
X60000Y948000D03*
X50000Y948000D03*
X40000Y948000D03*
D13*
X27000Y984750D03*
X83000Y984750D03*
D10*
X59722Y847820D02*
X53054Y847820D01*
X53054Y854488D01*
X59722Y854488D01*
X59722Y847820D01*
X59722Y849932D02*
X53054Y849932D01*
X53054Y852044D02*
X59722Y852044D01*
X59722Y854156D02*
X53054Y854156D01*
X68294Y847820D02*
X74962Y847820D01*
X68294Y847820D02*
X68294Y854488D01*
X74962Y854488D01*
X74962Y847820D01*
X74962Y849932D02*
X68294Y849932D01*
X68294Y852044D02*
X74962Y852044D01*
X74962Y854156D02*
X68294Y854156D01*
M02*
