G04 EAGLE Gerber RS-274X export*
G75*
%MOMM*%
%FSLAX34Y34*%
%LPD*%
%AMOC8*
5,1,8,0,0,1.08239X$1,22.5*%
G01*
%ADD10C,0.222250*%
%ADD11C,0.158750*%
%ADD12P,1.677704X8X292.500000*%
%ADD13R,0.600000X1.350000*%
%ADD14R,1.200000X2.000000*%
%ADD15R,2.209800X0.609600*%
%ADD16C,1.219200*%
%ADD17C,2.000000*%
%ADD18C,0.609600*%
%ADD19C,0.508000*%
%ADD20C,0.203200*%
%ADD21C,0.304800*%

G36*
X30911Y769127D02*
X30911Y769127D01*
X31013Y769135D01*
X31041Y769147D01*
X31072Y769152D01*
X31164Y769196D01*
X31260Y769234D01*
X31283Y769254D01*
X31311Y769267D01*
X31386Y769337D01*
X31466Y769402D01*
X31483Y769428D01*
X31505Y769449D01*
X31556Y769538D01*
X31613Y769623D01*
X31619Y769647D01*
X31637Y769679D01*
X31695Y769939D01*
X31692Y769977D01*
X31697Y770000D01*
X31697Y771520D01*
X31694Y771541D01*
X31696Y771562D01*
X31674Y771672D01*
X31657Y771783D01*
X31648Y771802D01*
X31644Y771822D01*
X31620Y771861D01*
X31542Y772022D01*
X31465Y772105D01*
X31437Y772148D01*
X12981Y790604D01*
X12981Y799806D01*
X12966Y799908D01*
X12958Y800010D01*
X12946Y800038D01*
X12941Y800069D01*
X12897Y800161D01*
X12859Y800257D01*
X12839Y800280D01*
X12826Y800308D01*
X12756Y800383D01*
X12691Y800463D01*
X12665Y800480D01*
X12644Y800502D01*
X12555Y800553D01*
X12470Y800610D01*
X12446Y800616D01*
X12414Y800634D01*
X12154Y800692D01*
X12116Y800689D01*
X12093Y800694D01*
X11753Y800694D01*
X10060Y802387D01*
X10060Y811449D01*
X11753Y813142D01*
X20815Y813142D01*
X22508Y811449D01*
X22508Y811299D01*
X22523Y811197D01*
X22531Y811095D01*
X22543Y811067D01*
X22548Y811036D01*
X22592Y810944D01*
X22630Y810848D01*
X22650Y810825D01*
X22663Y810797D01*
X22733Y810722D01*
X22798Y810642D01*
X22824Y810625D01*
X22845Y810603D01*
X22934Y810552D01*
X23019Y810495D01*
X23043Y810489D01*
X23075Y810471D01*
X23335Y810413D01*
X23373Y810416D01*
X23396Y810411D01*
X27006Y810411D01*
X27027Y810414D01*
X27048Y810412D01*
X27158Y810434D01*
X27269Y810451D01*
X27288Y810460D01*
X27309Y810464D01*
X27347Y810488D01*
X27508Y810566D01*
X27591Y810643D01*
X27634Y810671D01*
X28898Y811935D01*
X52470Y811935D01*
X53512Y810893D01*
X53512Y803323D01*
X52470Y802281D01*
X28898Y802281D01*
X27634Y803545D01*
X27617Y803558D01*
X27604Y803574D01*
X27511Y803636D01*
X27420Y803703D01*
X27401Y803710D01*
X27383Y803721D01*
X27339Y803731D01*
X27169Y803790D01*
X27057Y803794D01*
X27006Y803805D01*
X23396Y803805D01*
X23294Y803790D01*
X23192Y803782D01*
X23164Y803770D01*
X23133Y803765D01*
X23041Y803721D01*
X22945Y803683D01*
X22922Y803663D01*
X22894Y803650D01*
X22819Y803580D01*
X22739Y803515D01*
X22722Y803489D01*
X22700Y803468D01*
X22649Y803379D01*
X22592Y803294D01*
X22586Y803270D01*
X22568Y803238D01*
X22510Y802978D01*
X22513Y802940D01*
X22508Y802917D01*
X22508Y802387D01*
X20815Y800694D01*
X20475Y800694D01*
X20373Y800679D01*
X20271Y800671D01*
X20243Y800659D01*
X20212Y800654D01*
X20120Y800610D01*
X20024Y800572D01*
X20001Y800552D01*
X19973Y800539D01*
X19898Y800469D01*
X19818Y800404D01*
X19801Y800378D01*
X19779Y800357D01*
X19728Y800268D01*
X19671Y800183D01*
X19665Y800159D01*
X19647Y800127D01*
X19589Y799867D01*
X19592Y799829D01*
X19587Y799806D01*
X19587Y793708D01*
X19590Y793687D01*
X19588Y793666D01*
X19610Y793556D01*
X19627Y793445D01*
X19636Y793426D01*
X19640Y793406D01*
X19664Y793367D01*
X19742Y793206D01*
X19819Y793123D01*
X19847Y793080D01*
X38303Y774624D01*
X38303Y770000D01*
X38318Y769898D01*
X38326Y769796D01*
X38338Y769768D01*
X38343Y769737D01*
X38387Y769645D01*
X38425Y769549D01*
X38445Y769526D01*
X38458Y769498D01*
X38528Y769423D01*
X38593Y769343D01*
X38619Y769326D01*
X38640Y769304D01*
X38729Y769253D01*
X38814Y769196D01*
X38838Y769190D01*
X38870Y769172D01*
X39130Y769114D01*
X39168Y769117D01*
X39191Y769112D01*
X193904Y769112D01*
X194006Y769127D01*
X194108Y769135D01*
X194136Y769147D01*
X194167Y769152D01*
X194259Y769196D01*
X194355Y769234D01*
X194378Y769254D01*
X194406Y769267D01*
X194481Y769337D01*
X194561Y769402D01*
X194578Y769428D01*
X194600Y769449D01*
X194651Y769538D01*
X194708Y769623D01*
X194714Y769647D01*
X194732Y769679D01*
X194790Y769939D01*
X194787Y769977D01*
X194792Y770000D01*
X194792Y993904D01*
X194777Y994006D01*
X194769Y994108D01*
X194757Y994136D01*
X194752Y994167D01*
X194708Y994259D01*
X194670Y994355D01*
X194650Y994378D01*
X194637Y994406D01*
X194567Y994481D01*
X194502Y994561D01*
X194476Y994578D01*
X194455Y994600D01*
X194366Y994651D01*
X194281Y994708D01*
X194257Y994714D01*
X194225Y994732D01*
X193965Y994790D01*
X193927Y994787D01*
X193904Y994792D01*
X182429Y994792D01*
X182327Y994777D01*
X182225Y994769D01*
X182197Y994757D01*
X182166Y994752D01*
X182074Y994708D01*
X181978Y994670D01*
X181955Y994650D01*
X181927Y994637D01*
X181852Y994567D01*
X181772Y994502D01*
X181755Y994476D01*
X181733Y994455D01*
X181682Y994366D01*
X181625Y994281D01*
X181619Y994257D01*
X181601Y994225D01*
X181543Y993965D01*
X181546Y993927D01*
X181541Y993904D01*
X181541Y986527D01*
X173889Y986527D01*
X173788Y986512D01*
X173685Y986503D01*
X173657Y986492D01*
X173626Y986487D01*
X173534Y986443D01*
X173439Y986404D01*
X173415Y986385D01*
X173387Y986372D01*
X173312Y986302D01*
X173232Y986237D01*
X173215Y986211D01*
X173193Y986190D01*
X173142Y986101D01*
X173085Y986016D01*
X173080Y985992D01*
X173061Y985959D01*
X173003Y985700D01*
X173006Y985662D01*
X173001Y985639D01*
X173001Y984749D01*
X172999Y984749D01*
X172999Y985639D01*
X172984Y985740D01*
X172975Y985843D01*
X172964Y985871D01*
X172959Y985902D01*
X172915Y985994D01*
X172876Y986089D01*
X172857Y986113D01*
X172844Y986141D01*
X172774Y986216D01*
X172709Y986296D01*
X172683Y986313D01*
X172662Y986335D01*
X172573Y986386D01*
X172488Y986443D01*
X172464Y986448D01*
X172431Y986467D01*
X172172Y986525D01*
X172134Y986522D01*
X172111Y986527D01*
X164459Y986527D01*
X164459Y993904D01*
X164444Y994006D01*
X164436Y994108D01*
X164424Y994136D01*
X164419Y994167D01*
X164375Y994259D01*
X164337Y994355D01*
X164317Y994378D01*
X164304Y994406D01*
X164234Y994481D01*
X164169Y994561D01*
X164143Y994578D01*
X164122Y994600D01*
X164033Y994651D01*
X163948Y994708D01*
X163924Y994714D01*
X163892Y994732D01*
X163632Y994790D01*
X163594Y994787D01*
X163571Y994792D01*
X126429Y994792D01*
X126327Y994777D01*
X126225Y994769D01*
X126197Y994757D01*
X126166Y994752D01*
X126074Y994708D01*
X125978Y994670D01*
X125955Y994650D01*
X125927Y994637D01*
X125852Y994567D01*
X125772Y994502D01*
X125755Y994476D01*
X125733Y994455D01*
X125682Y994366D01*
X125625Y994281D01*
X125619Y994257D01*
X125601Y994225D01*
X125543Y993965D01*
X125546Y993927D01*
X125541Y993904D01*
X125541Y986527D01*
X117889Y986527D01*
X117788Y986512D01*
X117685Y986503D01*
X117657Y986492D01*
X117626Y986487D01*
X117534Y986443D01*
X117439Y986404D01*
X117415Y986385D01*
X117387Y986372D01*
X117312Y986302D01*
X117232Y986237D01*
X117215Y986211D01*
X117193Y986190D01*
X117142Y986101D01*
X117085Y986016D01*
X117080Y985992D01*
X117061Y985959D01*
X117003Y985700D01*
X117006Y985662D01*
X117001Y985639D01*
X117001Y984749D01*
X116999Y984749D01*
X116999Y985639D01*
X116984Y985740D01*
X116975Y985843D01*
X116964Y985871D01*
X116959Y985902D01*
X116915Y985994D01*
X116876Y986089D01*
X116857Y986113D01*
X116844Y986141D01*
X116774Y986216D01*
X116709Y986296D01*
X116683Y986313D01*
X116662Y986335D01*
X116573Y986386D01*
X116488Y986443D01*
X116464Y986448D01*
X116431Y986467D01*
X116172Y986525D01*
X116134Y986522D01*
X116111Y986527D01*
X108459Y986527D01*
X108459Y993904D01*
X108444Y994006D01*
X108436Y994108D01*
X108424Y994136D01*
X108419Y994167D01*
X108375Y994259D01*
X108337Y994355D01*
X108317Y994378D01*
X108304Y994406D01*
X108234Y994481D01*
X108169Y994561D01*
X108143Y994578D01*
X108122Y994600D01*
X108033Y994651D01*
X107948Y994708D01*
X107924Y994714D01*
X107892Y994732D01*
X107632Y994790D01*
X107594Y994787D01*
X107571Y994792D01*
X92429Y994792D01*
X92327Y994777D01*
X92225Y994769D01*
X92197Y994757D01*
X92166Y994752D01*
X92074Y994708D01*
X91978Y994670D01*
X91955Y994650D01*
X91927Y994637D01*
X91852Y994567D01*
X91772Y994502D01*
X91755Y994476D01*
X91733Y994455D01*
X91682Y994366D01*
X91625Y994281D01*
X91619Y994257D01*
X91601Y994225D01*
X91543Y993965D01*
X91546Y993927D01*
X91541Y993904D01*
X91541Y986527D01*
X83889Y986527D01*
X83788Y986512D01*
X83685Y986503D01*
X83657Y986492D01*
X83626Y986487D01*
X83534Y986443D01*
X83439Y986404D01*
X83415Y986385D01*
X83387Y986372D01*
X83312Y986302D01*
X83232Y986237D01*
X83215Y986211D01*
X83193Y986190D01*
X83142Y986101D01*
X83085Y986016D01*
X83080Y985992D01*
X83061Y985959D01*
X83003Y985700D01*
X83006Y985662D01*
X83001Y985639D01*
X83001Y984749D01*
X82999Y984749D01*
X82999Y985639D01*
X82984Y985740D01*
X82975Y985843D01*
X82964Y985871D01*
X82959Y985902D01*
X82915Y985994D01*
X82876Y986089D01*
X82857Y986113D01*
X82844Y986141D01*
X82774Y986216D01*
X82709Y986296D01*
X82683Y986313D01*
X82662Y986335D01*
X82573Y986386D01*
X82488Y986443D01*
X82464Y986448D01*
X82431Y986467D01*
X82172Y986525D01*
X82134Y986522D01*
X82111Y986527D01*
X74459Y986527D01*
X74459Y993904D01*
X74444Y994006D01*
X74436Y994108D01*
X74424Y994136D01*
X74419Y994167D01*
X74375Y994259D01*
X74337Y994355D01*
X74317Y994378D01*
X74304Y994406D01*
X74234Y994481D01*
X74169Y994561D01*
X74143Y994578D01*
X74122Y994600D01*
X74033Y994651D01*
X73948Y994708D01*
X73924Y994714D01*
X73892Y994732D01*
X73632Y994790D01*
X73594Y994787D01*
X73571Y994792D01*
X36429Y994792D01*
X36327Y994777D01*
X36225Y994769D01*
X36197Y994757D01*
X36166Y994752D01*
X36074Y994708D01*
X35978Y994670D01*
X35955Y994650D01*
X35927Y994637D01*
X35852Y994567D01*
X35772Y994502D01*
X35755Y994476D01*
X35733Y994455D01*
X35682Y994366D01*
X35625Y994281D01*
X35619Y994257D01*
X35601Y994225D01*
X35543Y993965D01*
X35546Y993927D01*
X35541Y993904D01*
X35541Y986527D01*
X27889Y986527D01*
X27788Y986512D01*
X27685Y986503D01*
X27657Y986492D01*
X27626Y986487D01*
X27534Y986443D01*
X27439Y986404D01*
X27415Y986385D01*
X27387Y986372D01*
X27312Y986302D01*
X27232Y986237D01*
X27215Y986211D01*
X27193Y986190D01*
X27142Y986101D01*
X27085Y986016D01*
X27080Y985992D01*
X27061Y985959D01*
X27003Y985700D01*
X27006Y985662D01*
X27001Y985639D01*
X27001Y984749D01*
X26999Y984749D01*
X26999Y985639D01*
X26984Y985740D01*
X26975Y985843D01*
X26964Y985871D01*
X26959Y985902D01*
X26915Y985994D01*
X26876Y986089D01*
X26857Y986113D01*
X26844Y986141D01*
X26774Y986216D01*
X26709Y986296D01*
X26683Y986313D01*
X26662Y986335D01*
X26573Y986386D01*
X26488Y986443D01*
X26464Y986448D01*
X26431Y986467D01*
X26172Y986525D01*
X26134Y986522D01*
X26111Y986527D01*
X18459Y986527D01*
X18459Y993904D01*
X18444Y994006D01*
X18436Y994108D01*
X18424Y994136D01*
X18419Y994167D01*
X18375Y994259D01*
X18337Y994355D01*
X18317Y994378D01*
X18304Y994406D01*
X18234Y994481D01*
X18169Y994561D01*
X18143Y994578D01*
X18122Y994600D01*
X18033Y994651D01*
X17948Y994708D01*
X17924Y994714D01*
X17892Y994732D01*
X17632Y994790D01*
X17594Y994787D01*
X17571Y994792D01*
X6096Y994792D01*
X5994Y994777D01*
X5892Y994769D01*
X5864Y994757D01*
X5833Y994752D01*
X5741Y994708D01*
X5645Y994670D01*
X5622Y994650D01*
X5594Y994637D01*
X5519Y994567D01*
X5439Y994502D01*
X5422Y994476D01*
X5400Y994455D01*
X5349Y994366D01*
X5292Y994281D01*
X5286Y994257D01*
X5268Y994225D01*
X5210Y993965D01*
X5213Y993927D01*
X5208Y993904D01*
X5208Y770000D01*
X5223Y769898D01*
X5231Y769796D01*
X5243Y769768D01*
X5248Y769737D01*
X5292Y769645D01*
X5330Y769549D01*
X5350Y769526D01*
X5363Y769498D01*
X5433Y769423D01*
X5498Y769343D01*
X5524Y769326D01*
X5545Y769304D01*
X5634Y769253D01*
X5719Y769196D01*
X5743Y769190D01*
X5775Y769172D01*
X6035Y769114D01*
X6073Y769117D01*
X6096Y769112D01*
X30809Y769112D01*
X30911Y769127D01*
G37*
G36*
X165852Y5219D02*
X165852Y5219D01*
X165929Y5221D01*
X165982Y5239D01*
X166038Y5248D01*
X166108Y5281D01*
X166181Y5305D01*
X166227Y5339D01*
X166278Y5363D01*
X166334Y5416D01*
X166396Y5461D01*
X166419Y5495D01*
X166472Y5545D01*
X166604Y5775D01*
X166605Y5781D01*
X166607Y5784D01*
X194736Y80794D01*
X194791Y81054D01*
X194788Y81085D01*
X194792Y81105D01*
X194792Y590000D01*
X194777Y590102D01*
X194769Y590204D01*
X194757Y590232D01*
X194752Y590263D01*
X194708Y590355D01*
X194670Y590451D01*
X194650Y590474D01*
X194637Y590502D01*
X194567Y590577D01*
X194502Y590657D01*
X194476Y590674D01*
X194455Y590696D01*
X194366Y590747D01*
X194281Y590804D01*
X194257Y590810D01*
X194225Y590828D01*
X193965Y590886D01*
X193927Y590883D01*
X193904Y590888D01*
X136096Y590888D01*
X135994Y590873D01*
X135892Y590865D01*
X135864Y590853D01*
X135833Y590848D01*
X135741Y590804D01*
X135645Y590766D01*
X135622Y590746D01*
X135594Y590733D01*
X135519Y590663D01*
X135439Y590598D01*
X135422Y590572D01*
X135400Y590551D01*
X135349Y590462D01*
X135292Y590377D01*
X135286Y590353D01*
X135268Y590321D01*
X135210Y590061D01*
X135213Y590023D01*
X135208Y590000D01*
X135208Y81105D01*
X135248Y80843D01*
X135261Y80814D01*
X135264Y80794D01*
X163393Y5784D01*
X163430Y5717D01*
X163459Y5645D01*
X163495Y5601D01*
X163522Y5552D01*
X163578Y5499D01*
X163627Y5439D01*
X163674Y5408D01*
X163715Y5369D01*
X163784Y5334D01*
X163848Y5292D01*
X163888Y5283D01*
X163953Y5250D01*
X164215Y5208D01*
X164221Y5209D01*
X164225Y5208D01*
X165775Y5208D01*
X165852Y5219D01*
G37*
G36*
X35852Y5219D02*
X35852Y5219D01*
X35929Y5221D01*
X35982Y5239D01*
X36038Y5248D01*
X36108Y5281D01*
X36181Y5305D01*
X36227Y5339D01*
X36278Y5363D01*
X36334Y5416D01*
X36396Y5461D01*
X36419Y5495D01*
X36472Y5545D01*
X36604Y5775D01*
X36605Y5781D01*
X36607Y5784D01*
X64736Y80794D01*
X64791Y81054D01*
X64788Y81085D01*
X64792Y81105D01*
X64792Y590000D01*
X64777Y590102D01*
X64769Y590204D01*
X64757Y590232D01*
X64752Y590263D01*
X64708Y590355D01*
X64670Y590451D01*
X64650Y590474D01*
X64637Y590502D01*
X64567Y590577D01*
X64502Y590657D01*
X64476Y590674D01*
X64455Y590696D01*
X64366Y590747D01*
X64281Y590804D01*
X64257Y590810D01*
X64225Y590828D01*
X63965Y590886D01*
X63927Y590883D01*
X63904Y590888D01*
X6096Y590888D01*
X5994Y590873D01*
X5892Y590865D01*
X5864Y590853D01*
X5833Y590848D01*
X5741Y590804D01*
X5645Y590766D01*
X5622Y590746D01*
X5594Y590733D01*
X5519Y590663D01*
X5439Y590598D01*
X5422Y590572D01*
X5400Y590551D01*
X5349Y590462D01*
X5292Y590377D01*
X5286Y590353D01*
X5268Y590321D01*
X5210Y590061D01*
X5213Y590023D01*
X5208Y590000D01*
X5208Y81105D01*
X5248Y80843D01*
X5261Y80814D01*
X5264Y80794D01*
X33393Y5784D01*
X33430Y5717D01*
X33459Y5645D01*
X33495Y5601D01*
X33522Y5552D01*
X33578Y5499D01*
X33627Y5439D01*
X33674Y5408D01*
X33715Y5369D01*
X33784Y5334D01*
X33848Y5292D01*
X33888Y5283D01*
X33953Y5250D01*
X34215Y5208D01*
X34221Y5209D01*
X34225Y5208D01*
X35775Y5208D01*
X35852Y5219D01*
G37*
%LPC*%
G36*
X125334Y781811D02*
X125334Y781811D01*
X117825Y789321D01*
X117808Y789334D01*
X117794Y789350D01*
X117701Y789412D01*
X117611Y789479D01*
X117591Y789486D01*
X117573Y789497D01*
X117529Y789507D01*
X117360Y789566D01*
X117247Y789570D01*
X117196Y789581D01*
X96208Y789581D01*
X95166Y790623D01*
X95166Y797179D01*
X95151Y797281D01*
X95143Y797383D01*
X95131Y797411D01*
X95126Y797442D01*
X95082Y797534D01*
X95044Y797630D01*
X95024Y797653D01*
X95011Y797681D01*
X94941Y797756D01*
X94876Y797836D01*
X94850Y797853D01*
X94829Y797875D01*
X94740Y797926D01*
X94655Y797983D01*
X94631Y797989D01*
X94599Y798007D01*
X94339Y798065D01*
X94301Y798062D01*
X94278Y798067D01*
X85202Y798067D01*
X54657Y828613D01*
X54575Y828673D01*
X54496Y828740D01*
X54468Y828752D01*
X54443Y828770D01*
X54346Y828804D01*
X54252Y828844D01*
X54221Y828847D01*
X54192Y828858D01*
X54090Y828861D01*
X53987Y828872D01*
X53957Y828866D01*
X53926Y828867D01*
X53828Y828840D01*
X53727Y828820D01*
X53707Y828807D01*
X53670Y828797D01*
X53446Y828654D01*
X53421Y828625D01*
X53401Y828613D01*
X52470Y827681D01*
X31347Y827681D01*
X31296Y827674D01*
X31245Y827675D01*
X31166Y827654D01*
X31085Y827641D01*
X31038Y827619D01*
X30988Y827605D01*
X30919Y827561D01*
X30845Y827526D01*
X30808Y827491D01*
X30764Y827463D01*
X30711Y827400D01*
X30651Y827344D01*
X30625Y827300D01*
X30592Y827260D01*
X30560Y827185D01*
X30519Y827114D01*
X30508Y827063D01*
X30488Y827016D01*
X30479Y826934D01*
X30461Y826854D01*
X30466Y826803D01*
X30460Y826751D01*
X30476Y826671D01*
X30483Y826589D01*
X30502Y826541D01*
X30512Y826491D01*
X30540Y826447D01*
X30582Y826342D01*
X30695Y826203D01*
X30719Y826165D01*
X31989Y824895D01*
X32006Y824882D01*
X32020Y824866D01*
X32113Y824804D01*
X32203Y824737D01*
X32223Y824730D01*
X32241Y824719D01*
X32285Y824709D01*
X32455Y824650D01*
X32567Y824646D01*
X32618Y824635D01*
X52470Y824635D01*
X53512Y823593D01*
X53512Y816023D01*
X52470Y814981D01*
X28898Y814981D01*
X27856Y816023D01*
X27856Y820755D01*
X27853Y820776D01*
X27855Y820797D01*
X27833Y820907D01*
X27816Y821018D01*
X27807Y821037D01*
X27803Y821058D01*
X27779Y821096D01*
X27701Y821258D01*
X27624Y821340D01*
X27596Y821384D01*
X24024Y824956D01*
X23983Y824986D01*
X23947Y825024D01*
X23876Y825065D01*
X23810Y825113D01*
X23761Y825130D01*
X23717Y825156D01*
X23637Y825174D01*
X23559Y825201D01*
X23507Y825202D01*
X23457Y825214D01*
X23375Y825207D01*
X23293Y825210D01*
X23244Y825196D01*
X23192Y825192D01*
X23116Y825162D01*
X23037Y825140D01*
X22993Y825112D01*
X22945Y825093D01*
X22882Y825041D01*
X22813Y824997D01*
X22779Y824958D01*
X22739Y824925D01*
X22694Y824857D01*
X22641Y824795D01*
X22620Y824747D01*
X22592Y824704D01*
X22580Y824654D01*
X22536Y824550D01*
X22518Y824372D01*
X22508Y824328D01*
X22508Y817627D01*
X20815Y815934D01*
X11753Y815934D01*
X10060Y817627D01*
X10060Y826689D01*
X11753Y828382D01*
X12093Y828382D01*
X12195Y828397D01*
X12297Y828405D01*
X12325Y828417D01*
X12356Y828422D01*
X12448Y828466D01*
X12544Y828504D01*
X12567Y828524D01*
X12595Y828537D01*
X12670Y828607D01*
X12750Y828672D01*
X12767Y828698D01*
X12789Y828719D01*
X12840Y828808D01*
X12897Y828893D01*
X12903Y828917D01*
X12921Y828949D01*
X12979Y829209D01*
X12976Y829247D01*
X12981Y829270D01*
X12981Y842898D01*
X26155Y856072D01*
X26168Y856089D01*
X26184Y856102D01*
X26246Y856196D01*
X26313Y856286D01*
X26320Y856306D01*
X26331Y856323D01*
X26341Y856368D01*
X26400Y856537D01*
X26404Y856650D01*
X26415Y856700D01*
X26415Y858487D01*
X29243Y861315D01*
X33241Y861315D01*
X36119Y858437D01*
X36160Y858406D01*
X36196Y858369D01*
X36267Y858328D01*
X36333Y858279D01*
X36382Y858262D01*
X36426Y858237D01*
X36506Y858219D01*
X36584Y858192D01*
X36636Y858190D01*
X36686Y858179D01*
X36768Y858186D01*
X36850Y858183D01*
X36899Y858196D01*
X36951Y858201D01*
X37027Y858231D01*
X37106Y858253D01*
X37150Y858280D01*
X37198Y858300D01*
X37261Y858351D01*
X37330Y858395D01*
X37364Y858435D01*
X37404Y858467D01*
X37449Y858536D01*
X37502Y858598D01*
X37523Y858645D01*
X37551Y858688D01*
X37563Y858739D01*
X37607Y858842D01*
X37625Y859021D01*
X37635Y859065D01*
X37635Y874830D01*
X37620Y874932D01*
X37612Y875034D01*
X37600Y875062D01*
X37595Y875093D01*
X37551Y875185D01*
X37513Y875281D01*
X37493Y875304D01*
X37480Y875332D01*
X37410Y875407D01*
X37345Y875487D01*
X37319Y875504D01*
X37298Y875526D01*
X37209Y875577D01*
X37124Y875634D01*
X37100Y875640D01*
X37068Y875658D01*
X36808Y875716D01*
X36770Y875713D01*
X36747Y875718D01*
X35899Y875718D01*
X34206Y877411D01*
X34206Y877773D01*
X34199Y877824D01*
X34200Y877876D01*
X34179Y877955D01*
X34166Y878036D01*
X34144Y878082D01*
X34130Y878132D01*
X34086Y878201D01*
X34051Y878275D01*
X34015Y878313D01*
X33988Y878357D01*
X33925Y878410D01*
X33869Y878470D01*
X33824Y878495D01*
X33785Y878529D01*
X33710Y878561D01*
X33639Y878602D01*
X33588Y878613D01*
X33541Y878633D01*
X33459Y878642D01*
X33379Y878659D01*
X33328Y878655D01*
X33276Y878660D01*
X33196Y878644D01*
X33114Y878638D01*
X33066Y878618D01*
X33016Y878608D01*
X32972Y878581D01*
X32867Y878539D01*
X32728Y878426D01*
X32690Y878401D01*
X32254Y877965D01*
X31494Y877527D01*
X30646Y877299D01*
X28587Y877299D01*
X28587Y882316D01*
X28571Y882418D01*
X28563Y882520D01*
X28552Y882549D01*
X28547Y882579D01*
X28502Y882671D01*
X28464Y882767D01*
X28445Y882791D01*
X28431Y882818D01*
X28361Y882893D01*
X28296Y882973D01*
X28271Y882990D01*
X28250Y883013D01*
X28240Y883018D01*
X28276Y883051D01*
X28355Y883116D01*
X28372Y883141D01*
X28395Y883162D01*
X28446Y883251D01*
X28503Y883337D01*
X28508Y883360D01*
X28527Y883393D01*
X28585Y883653D01*
X28582Y883690D01*
X28587Y883714D01*
X28587Y888731D01*
X30646Y888731D01*
X31494Y888503D01*
X32254Y888065D01*
X32875Y887444D01*
X33139Y886987D01*
X33192Y886920D01*
X33238Y886847D01*
X33275Y886816D01*
X33305Y886779D01*
X33376Y886731D01*
X33441Y886675D01*
X33485Y886657D01*
X33525Y886630D01*
X33607Y886605D01*
X33685Y886571D01*
X33733Y886566D01*
X33779Y886552D01*
X33864Y886552D01*
X33950Y886544D01*
X33997Y886553D01*
X34045Y886553D01*
X34126Y886579D01*
X34210Y886596D01*
X34240Y886615D01*
X34298Y886633D01*
X34517Y886784D01*
X34527Y886797D01*
X34536Y886803D01*
X35899Y888166D01*
X44961Y888166D01*
X46654Y886473D01*
X46654Y877411D01*
X44961Y875718D01*
X44113Y875718D01*
X44011Y875703D01*
X43909Y875695D01*
X43881Y875683D01*
X43850Y875678D01*
X43758Y875634D01*
X43662Y875596D01*
X43639Y875576D01*
X43611Y875563D01*
X43536Y875493D01*
X43456Y875428D01*
X43439Y875402D01*
X43417Y875381D01*
X43366Y875292D01*
X43309Y875207D01*
X43303Y875183D01*
X43285Y875151D01*
X43227Y874891D01*
X43228Y874879D01*
X43227Y874875D01*
X43229Y874849D01*
X43225Y874830D01*
X43225Y854247D01*
X43232Y854196D01*
X43231Y854145D01*
X43252Y854066D01*
X43265Y853985D01*
X43287Y853938D01*
X43301Y853888D01*
X43345Y853819D01*
X43380Y853745D01*
X43416Y853708D01*
X43443Y853664D01*
X43506Y853611D01*
X43562Y853551D01*
X43607Y853525D01*
X43646Y853492D01*
X43721Y853460D01*
X43792Y853419D01*
X43843Y853408D01*
X43890Y853388D01*
X43972Y853379D01*
X44052Y853361D01*
X44103Y853366D01*
X44155Y853360D01*
X44235Y853376D01*
X44317Y853383D01*
X44365Y853402D01*
X44415Y853412D01*
X44459Y853440D01*
X44564Y853482D01*
X44703Y853595D01*
X44741Y853619D01*
X45070Y853949D01*
X49276Y853949D01*
X49378Y853964D01*
X49480Y853972D01*
X49508Y853984D01*
X49539Y853989D01*
X49631Y854033D01*
X49727Y854071D01*
X49750Y854091D01*
X49778Y854104D01*
X49853Y854174D01*
X49933Y854239D01*
X49950Y854265D01*
X49972Y854286D01*
X50023Y854375D01*
X50080Y854460D01*
X50086Y854484D01*
X50104Y854516D01*
X50162Y854776D01*
X50159Y854814D01*
X50164Y854837D01*
X50164Y855685D01*
X51857Y857378D01*
X60919Y857378D01*
X62612Y855685D01*
X62612Y846623D01*
X60919Y844930D01*
X51857Y844930D01*
X50164Y846623D01*
X50164Y847471D01*
X50149Y847573D01*
X50141Y847675D01*
X50129Y847703D01*
X50124Y847734D01*
X50080Y847826D01*
X50042Y847922D01*
X50022Y847945D01*
X50009Y847973D01*
X49939Y848048D01*
X49874Y848128D01*
X49848Y848145D01*
X49827Y848167D01*
X49738Y848218D01*
X49653Y848275D01*
X49629Y848281D01*
X49597Y848299D01*
X49337Y848357D01*
X49299Y848354D01*
X49276Y848359D01*
X47754Y848359D01*
X47733Y848356D01*
X47712Y848358D01*
X47602Y848336D01*
X47491Y848319D01*
X47472Y848310D01*
X47451Y848306D01*
X47413Y848282D01*
X47251Y848204D01*
X47169Y848127D01*
X47125Y848099D01*
X43739Y844713D01*
X43726Y844696D01*
X43710Y844682D01*
X43648Y844589D01*
X43581Y844499D01*
X43574Y844479D01*
X43563Y844461D01*
X43553Y844417D01*
X43494Y844248D01*
X43490Y844135D01*
X43479Y844084D01*
X43479Y838223D01*
X43494Y838121D01*
X43502Y838019D01*
X43514Y837991D01*
X43519Y837960D01*
X43563Y837868D01*
X43601Y837772D01*
X43621Y837749D01*
X43634Y837721D01*
X43704Y837646D01*
X43769Y837566D01*
X43795Y837549D01*
X43816Y837527D01*
X43905Y837476D01*
X43990Y837419D01*
X44014Y837413D01*
X44046Y837395D01*
X44306Y837337D01*
X44344Y837340D01*
X44367Y837335D01*
X52470Y837335D01*
X53512Y836293D01*
X53512Y836191D01*
X53527Y836089D01*
X53535Y835987D01*
X53547Y835959D01*
X53552Y835928D01*
X53596Y835836D01*
X53634Y835740D01*
X53654Y835717D01*
X53667Y835689D01*
X53737Y835614D01*
X53802Y835534D01*
X53828Y835517D01*
X53849Y835495D01*
X53938Y835444D01*
X54023Y835387D01*
X54047Y835381D01*
X54079Y835363D01*
X54339Y835305D01*
X54377Y835308D01*
X54400Y835303D01*
X55872Y835303D01*
X87257Y803917D01*
X87274Y803904D01*
X87288Y803888D01*
X87381Y803826D01*
X87471Y803759D01*
X87491Y803752D01*
X87509Y803741D01*
X87553Y803731D01*
X87722Y803672D01*
X87835Y803668D01*
X87886Y803657D01*
X94278Y803657D01*
X94380Y803672D01*
X94482Y803680D01*
X94510Y803692D01*
X94541Y803697D01*
X94633Y803741D01*
X94729Y803779D01*
X94752Y803799D01*
X94780Y803812D01*
X94855Y803882D01*
X94935Y803947D01*
X94952Y803973D01*
X94974Y803994D01*
X95025Y804083D01*
X95082Y804168D01*
X95088Y804192D01*
X95106Y804224D01*
X95164Y804484D01*
X95161Y804522D01*
X95166Y804545D01*
X95166Y810893D01*
X96208Y811935D01*
X119780Y811935D01*
X120822Y810893D01*
X120822Y810791D01*
X120837Y810689D01*
X120845Y810587D01*
X120857Y810559D01*
X120862Y810528D01*
X120906Y810436D01*
X120944Y810340D01*
X120964Y810317D01*
X120977Y810289D01*
X121047Y810214D01*
X121112Y810134D01*
X121138Y810117D01*
X121159Y810095D01*
X121248Y810044D01*
X121333Y809987D01*
X121357Y809981D01*
X121389Y809963D01*
X121649Y809905D01*
X121687Y809908D01*
X121710Y809903D01*
X141626Y809903D01*
X141647Y809906D01*
X141668Y809904D01*
X141778Y809926D01*
X141889Y809943D01*
X141908Y809952D01*
X141929Y809956D01*
X141967Y809980D01*
X142129Y810058D01*
X142211Y810135D01*
X142255Y810163D01*
X145400Y813309D01*
X148315Y813309D01*
X148366Y813316D01*
X148418Y813315D01*
X148497Y813336D01*
X148578Y813349D01*
X148624Y813371D01*
X148674Y813385D01*
X148744Y813429D01*
X148817Y813464D01*
X148855Y813499D01*
X148899Y813527D01*
X148952Y813590D01*
X149012Y813646D01*
X149037Y813690D01*
X149071Y813730D01*
X149103Y813805D01*
X149144Y813876D01*
X149155Y813927D01*
X149175Y813974D01*
X149184Y814056D01*
X149201Y814136D01*
X149197Y814187D01*
X149202Y814239D01*
X149186Y814319D01*
X149180Y814401D01*
X149161Y814449D01*
X149150Y814499D01*
X149123Y814543D01*
X149081Y814648D01*
X148968Y814787D01*
X148943Y814825D01*
X147015Y816753D01*
X146998Y816766D01*
X146985Y816782D01*
X146892Y816844D01*
X146801Y816911D01*
X146781Y816918D01*
X146764Y816929D01*
X146719Y816939D01*
X146550Y816998D01*
X146438Y817002D01*
X146387Y817013D01*
X121710Y817013D01*
X121608Y816998D01*
X121506Y816990D01*
X121478Y816978D01*
X121447Y816973D01*
X121355Y816929D01*
X121259Y816891D01*
X121236Y816871D01*
X121208Y816858D01*
X121133Y816788D01*
X121053Y816723D01*
X121036Y816697D01*
X121014Y816676D01*
X120963Y816587D01*
X120906Y816502D01*
X120900Y816478D01*
X120882Y816446D01*
X120824Y816186D01*
X120827Y816148D01*
X120822Y816125D01*
X120822Y816023D01*
X119780Y814981D01*
X96208Y814981D01*
X95166Y816023D01*
X95166Y823593D01*
X96208Y824635D01*
X119780Y824635D01*
X120822Y823593D01*
X120822Y823491D01*
X120837Y823389D01*
X120845Y823287D01*
X120857Y823259D01*
X120862Y823228D01*
X120906Y823136D01*
X120944Y823040D01*
X120964Y823017D01*
X120977Y822989D01*
X121047Y822914D01*
X121112Y822834D01*
X121138Y822817D01*
X121159Y822795D01*
X121248Y822744D01*
X121333Y822687D01*
X121357Y822681D01*
X121389Y822663D01*
X121649Y822605D01*
X121687Y822608D01*
X121710Y822603D01*
X129212Y822603D01*
X129314Y822618D01*
X129416Y822626D01*
X129444Y822638D01*
X129475Y822643D01*
X129567Y822687D01*
X129663Y822725D01*
X129686Y822745D01*
X129714Y822758D01*
X129789Y822828D01*
X129869Y822893D01*
X129886Y822919D01*
X129908Y822940D01*
X129959Y823029D01*
X130016Y823114D01*
X130022Y823138D01*
X130040Y823170D01*
X130098Y823430D01*
X130095Y823468D01*
X130100Y823491D01*
X130100Y853639D01*
X130097Y853660D01*
X130099Y853681D01*
X130077Y853791D01*
X130060Y853902D01*
X130051Y853921D01*
X130047Y853942D01*
X130023Y853980D01*
X129945Y854142D01*
X129868Y854224D01*
X129840Y854268D01*
X115562Y868546D01*
X115545Y868559D01*
X115531Y868575D01*
X115438Y868637D01*
X115348Y868704D01*
X115328Y868711D01*
X115310Y868722D01*
X115266Y868732D01*
X115097Y868791D01*
X114984Y868795D01*
X114933Y868806D01*
X110444Y868806D01*
X110393Y868799D01*
X110342Y868800D01*
X110262Y868779D01*
X110181Y868766D01*
X110135Y868744D01*
X110085Y868730D01*
X110016Y868686D01*
X109942Y868651D01*
X109904Y868616D01*
X109861Y868588D01*
X109808Y868525D01*
X109748Y868469D01*
X109722Y868425D01*
X109689Y868385D01*
X109656Y868310D01*
X109616Y868239D01*
X109605Y868188D01*
X109584Y868141D01*
X109576Y868059D01*
X109558Y867979D01*
X109562Y867928D01*
X109557Y867876D01*
X109573Y867796D01*
X109580Y867714D01*
X109599Y867666D01*
X109609Y867616D01*
X109637Y867572D01*
X109679Y867467D01*
X109792Y867328D01*
X109816Y867290D01*
X112777Y864329D01*
X112777Y860331D01*
X111603Y859157D01*
X111590Y859140D01*
X111574Y859127D01*
X111512Y859033D01*
X111445Y858943D01*
X111438Y858923D01*
X111427Y858906D01*
X111417Y858861D01*
X111358Y858692D01*
X111354Y858579D01*
X111343Y858529D01*
X111343Y858322D01*
X111358Y858220D01*
X111366Y858118D01*
X111378Y858090D01*
X111383Y858059D01*
X111427Y857967D01*
X111465Y857871D01*
X111485Y857848D01*
X111498Y857820D01*
X111568Y857745D01*
X111633Y857665D01*
X111659Y857648D01*
X111680Y857626D01*
X111769Y857575D01*
X111854Y857518D01*
X111878Y857512D01*
X111910Y857494D01*
X112170Y857436D01*
X112208Y857439D01*
X112231Y857434D01*
X112571Y857434D01*
X114264Y855741D01*
X114264Y846679D01*
X112571Y844986D01*
X112231Y844986D01*
X112129Y844971D01*
X112027Y844963D01*
X111999Y844951D01*
X111968Y844946D01*
X111876Y844902D01*
X111780Y844864D01*
X111757Y844844D01*
X111729Y844831D01*
X111654Y844761D01*
X111574Y844696D01*
X111557Y844670D01*
X111535Y844649D01*
X111484Y844560D01*
X111427Y844475D01*
X111421Y844451D01*
X111403Y844419D01*
X111345Y844159D01*
X111348Y844121D01*
X111343Y844098D01*
X111343Y838223D01*
X111358Y838121D01*
X111366Y838019D01*
X111378Y837991D01*
X111383Y837960D01*
X111427Y837868D01*
X111465Y837772D01*
X111485Y837749D01*
X111498Y837721D01*
X111568Y837646D01*
X111633Y837566D01*
X111659Y837549D01*
X111680Y837527D01*
X111769Y837476D01*
X111854Y837419D01*
X111878Y837413D01*
X111910Y837395D01*
X112170Y837337D01*
X112208Y837340D01*
X112231Y837335D01*
X119780Y837335D01*
X120822Y836293D01*
X120822Y828723D01*
X119780Y827681D01*
X96208Y827681D01*
X95166Y828723D01*
X95166Y836293D01*
X96208Y837335D01*
X103849Y837335D01*
X103951Y837350D01*
X104053Y837358D01*
X104081Y837370D01*
X104112Y837375D01*
X104204Y837419D01*
X104300Y837457D01*
X104323Y837477D01*
X104351Y837490D01*
X104426Y837560D01*
X104506Y837625D01*
X104523Y837651D01*
X104545Y837672D01*
X104596Y837761D01*
X104653Y837846D01*
X104659Y837870D01*
X104677Y837902D01*
X104735Y838162D01*
X104732Y838200D01*
X104737Y838223D01*
X104737Y844098D01*
X104722Y844200D01*
X104714Y844302D01*
X104702Y844330D01*
X104697Y844361D01*
X104653Y844453D01*
X104615Y844549D01*
X104595Y844572D01*
X104582Y844600D01*
X104512Y844675D01*
X104447Y844755D01*
X104421Y844772D01*
X104400Y844794D01*
X104311Y844845D01*
X104226Y844902D01*
X104202Y844908D01*
X104170Y844926D01*
X103910Y844984D01*
X103872Y844981D01*
X103849Y844986D01*
X103509Y844986D01*
X101816Y846679D01*
X101816Y855741D01*
X103586Y857511D01*
X103617Y857552D01*
X103655Y857588D01*
X103695Y857659D01*
X103744Y857725D01*
X103761Y857774D01*
X103787Y857818D01*
X103804Y857898D01*
X103831Y857976D01*
X103833Y858028D01*
X103844Y858078D01*
X103838Y858160D01*
X103841Y858242D01*
X103827Y858291D01*
X103823Y858343D01*
X103792Y858419D01*
X103771Y858498D01*
X103743Y858542D01*
X103724Y858590D01*
X103672Y858653D01*
X103628Y858722D01*
X103589Y858756D01*
X103556Y858796D01*
X103488Y858841D01*
X103425Y858894D01*
X103378Y858915D01*
X103335Y858943D01*
X103285Y858955D01*
X103181Y858999D01*
X103003Y859017D01*
X102958Y859027D01*
X98959Y859027D01*
X98908Y859020D01*
X98857Y859021D01*
X98777Y859000D01*
X98697Y858987D01*
X98650Y858965D01*
X98600Y858951D01*
X98531Y858907D01*
X98457Y858872D01*
X98419Y858836D01*
X98376Y858809D01*
X98323Y858746D01*
X98263Y858690D01*
X98237Y858646D01*
X98204Y858606D01*
X98172Y858531D01*
X98131Y858460D01*
X98120Y858409D01*
X98099Y858362D01*
X98091Y858280D01*
X98073Y858200D01*
X98077Y858149D01*
X98072Y858097D01*
X98088Y858017D01*
X98095Y857935D01*
X98114Y857887D01*
X98124Y857837D01*
X98152Y857793D01*
X98194Y857688D01*
X98307Y857549D01*
X98331Y857511D01*
X99056Y856786D01*
X99537Y855953D01*
X99786Y855025D01*
X99786Y852987D01*
X93689Y852987D01*
X93588Y852972D01*
X93485Y852963D01*
X93457Y852952D01*
X93426Y852947D01*
X93334Y852903D01*
X93239Y852864D01*
X93215Y852845D01*
X93187Y852832D01*
X93112Y852762D01*
X93032Y852697D01*
X93015Y852671D01*
X92993Y852650D01*
X92942Y852561D01*
X92885Y852476D01*
X92880Y852452D01*
X92861Y852419D01*
X92803Y852160D01*
X92806Y852122D01*
X92801Y852099D01*
X92801Y851209D01*
X92799Y851209D01*
X92799Y852099D01*
X92784Y852200D01*
X92775Y852303D01*
X92764Y852331D01*
X92759Y852362D01*
X92715Y852454D01*
X92676Y852549D01*
X92657Y852573D01*
X92644Y852601D01*
X92574Y852676D01*
X92509Y852756D01*
X92483Y852773D01*
X92462Y852795D01*
X92373Y852846D01*
X92288Y852903D01*
X92264Y852908D01*
X92231Y852927D01*
X91972Y852985D01*
X91934Y852982D01*
X91911Y852987D01*
X85814Y852987D01*
X85814Y855025D01*
X86063Y855953D01*
X86544Y856786D01*
X87269Y857511D01*
X87299Y857552D01*
X87337Y857588D01*
X87378Y857659D01*
X87426Y857725D01*
X87443Y857774D01*
X87469Y857818D01*
X87487Y857898D01*
X87514Y857976D01*
X87516Y858028D01*
X87527Y858078D01*
X87520Y858160D01*
X87523Y858242D01*
X87509Y858291D01*
X87505Y858343D01*
X87475Y858419D01*
X87453Y858498D01*
X87425Y858542D01*
X87406Y858590D01*
X87354Y858653D01*
X87310Y858722D01*
X87271Y858756D01*
X87239Y858796D01*
X87170Y858841D01*
X87108Y858894D01*
X87060Y858915D01*
X87017Y858943D01*
X86967Y858955D01*
X86863Y858999D01*
X86685Y859017D01*
X86641Y859027D01*
X84540Y859027D01*
X84519Y859024D01*
X84498Y859026D01*
X84388Y859004D01*
X84277Y858987D01*
X84258Y858978D01*
X84238Y858974D01*
X84199Y858950D01*
X84038Y858872D01*
X83955Y858795D01*
X83912Y858767D01*
X78112Y852967D01*
X78099Y852950D01*
X78083Y852937D01*
X78021Y852843D01*
X77954Y852753D01*
X77947Y852733D01*
X77936Y852716D01*
X77926Y852671D01*
X77867Y852502D01*
X77863Y852389D01*
X77852Y852339D01*
X77852Y846623D01*
X76159Y844930D01*
X67097Y844930D01*
X65404Y846623D01*
X65404Y855685D01*
X67097Y857378D01*
X72813Y857378D01*
X72834Y857381D01*
X72855Y857379D01*
X72965Y857401D01*
X73076Y857418D01*
X73095Y857427D01*
X73115Y857431D01*
X73154Y857455D01*
X73315Y857533D01*
X73398Y857610D01*
X73441Y857638D01*
X81436Y865633D01*
X104059Y865633D01*
X104080Y865636D01*
X104100Y865634D01*
X104211Y865656D01*
X104322Y865673D01*
X104340Y865682D01*
X104361Y865686D01*
X104400Y865710D01*
X104561Y865788D01*
X104643Y865865D01*
X104687Y865893D01*
X106084Y867290D01*
X106115Y867331D01*
X106152Y867367D01*
X106193Y867438D01*
X106242Y867504D01*
X106259Y867553D01*
X106284Y867597D01*
X106302Y867677D01*
X106329Y867755D01*
X106331Y867807D01*
X106342Y867857D01*
X106335Y867939D01*
X106338Y868021D01*
X106325Y868070D01*
X106320Y868122D01*
X106290Y868198D01*
X106268Y868277D01*
X106241Y868321D01*
X106221Y868369D01*
X106170Y868432D01*
X106126Y868501D01*
X106086Y868535D01*
X106054Y868575D01*
X105985Y868620D01*
X105923Y868673D01*
X105876Y868694D01*
X105833Y868722D01*
X105782Y868734D01*
X105679Y868778D01*
X105500Y868796D01*
X105456Y868806D01*
X86853Y868806D01*
X77977Y877682D01*
X77977Y878732D01*
X77962Y878834D01*
X77954Y878936D01*
X77942Y878964D01*
X77937Y878995D01*
X77893Y879087D01*
X77855Y879183D01*
X77835Y879206D01*
X77822Y879234D01*
X77752Y879309D01*
X77687Y879389D01*
X77661Y879406D01*
X77640Y879428D01*
X77551Y879479D01*
X77466Y879536D01*
X77442Y879542D01*
X77410Y879560D01*
X77150Y879618D01*
X77112Y879615D01*
X77089Y879620D01*
X68879Y879620D01*
X67165Y881334D01*
X67159Y881358D01*
X67146Y881439D01*
X67124Y881485D01*
X67110Y881535D01*
X67066Y881604D01*
X67031Y881678D01*
X66996Y881716D01*
X66968Y881759D01*
X66905Y881812D01*
X66849Y881872D01*
X66805Y881898D01*
X66765Y881931D01*
X66690Y881964D01*
X66619Y882004D01*
X66568Y882015D01*
X66521Y882036D01*
X66439Y882044D01*
X66359Y882062D01*
X66308Y882058D01*
X66256Y882063D01*
X66176Y882047D01*
X66094Y882040D01*
X66046Y882021D01*
X65996Y882011D01*
X65952Y881983D01*
X65847Y881941D01*
X65708Y881828D01*
X65670Y881804D01*
X64483Y880617D01*
X60485Y880617D01*
X57657Y883445D01*
X57657Y887443D01*
X60485Y890271D01*
X64483Y890271D01*
X65670Y889084D01*
X65711Y889053D01*
X65747Y889016D01*
X65818Y888975D01*
X65884Y888926D01*
X65933Y888909D01*
X65977Y888884D01*
X66057Y888866D01*
X66135Y888839D01*
X66187Y888837D01*
X66237Y888826D01*
X66319Y888833D01*
X66401Y888830D01*
X66450Y888843D01*
X66502Y888848D01*
X66578Y888878D01*
X66657Y888900D01*
X66701Y888927D01*
X66749Y888947D01*
X66812Y888998D01*
X66881Y889042D01*
X66915Y889082D01*
X66955Y889114D01*
X67000Y889183D01*
X67053Y889245D01*
X67074Y889292D01*
X67102Y889335D01*
X67114Y889386D01*
X67158Y889489D01*
X67176Y889668D01*
X67186Y889712D01*
X67186Y890375D01*
X68879Y892068D01*
X77089Y892068D01*
X77191Y892083D01*
X77293Y892091D01*
X77321Y892103D01*
X77352Y892108D01*
X77444Y892152D01*
X77540Y892190D01*
X77563Y892210D01*
X77591Y892223D01*
X77666Y892293D01*
X77746Y892358D01*
X77763Y892384D01*
X77785Y892405D01*
X77836Y892494D01*
X77893Y892579D01*
X77899Y892603D01*
X77917Y892635D01*
X77975Y892895D01*
X77972Y892933D01*
X77977Y892956D01*
X77977Y893528D01*
X77962Y893630D01*
X77954Y893732D01*
X77942Y893760D01*
X77937Y893791D01*
X77893Y893883D01*
X77855Y893979D01*
X77835Y894002D01*
X77822Y894030D01*
X77752Y894105D01*
X77687Y894185D01*
X77661Y894202D01*
X77640Y894224D01*
X77551Y894275D01*
X77466Y894332D01*
X77442Y894338D01*
X77410Y894356D01*
X77150Y894414D01*
X77112Y894411D01*
X77089Y894416D01*
X68657Y894416D01*
X66964Y896109D01*
X66964Y896194D01*
X66957Y896245D01*
X66958Y896296D01*
X66937Y896376D01*
X66924Y896457D01*
X66902Y896503D01*
X66888Y896553D01*
X66844Y896622D01*
X66809Y896696D01*
X66774Y896734D01*
X66746Y896777D01*
X66683Y896830D01*
X66627Y896890D01*
X66583Y896916D01*
X66543Y896949D01*
X66468Y896982D01*
X66397Y897022D01*
X66346Y897033D01*
X66299Y897054D01*
X66217Y897062D01*
X66137Y897080D01*
X66086Y897076D01*
X66034Y897081D01*
X65954Y897065D01*
X65872Y897058D01*
X65824Y897039D01*
X65774Y897029D01*
X65730Y897001D01*
X65625Y896959D01*
X65486Y896846D01*
X65448Y896822D01*
X64483Y895857D01*
X60485Y895857D01*
X57657Y898685D01*
X57657Y902683D01*
X60485Y905511D01*
X64483Y905511D01*
X65448Y904546D01*
X65489Y904515D01*
X65525Y904478D01*
X65596Y904437D01*
X65662Y904388D01*
X65711Y904371D01*
X65755Y904346D01*
X65835Y904328D01*
X65913Y904301D01*
X65965Y904299D01*
X66015Y904288D01*
X66097Y904295D01*
X66179Y904292D01*
X66228Y904305D01*
X66280Y904310D01*
X66356Y904340D01*
X66435Y904362D01*
X66479Y904389D01*
X66527Y904409D01*
X66590Y904460D01*
X66659Y904504D01*
X66693Y904544D01*
X66733Y904576D01*
X66778Y904645D01*
X66831Y904707D01*
X66852Y904754D01*
X66880Y904797D01*
X66892Y904848D01*
X66936Y904951D01*
X66954Y905130D01*
X66963Y905170D01*
X68657Y906864D01*
X76108Y906864D01*
X76159Y906871D01*
X76210Y906870D01*
X76289Y906891D01*
X76370Y906904D01*
X76417Y906926D01*
X76467Y906940D01*
X76536Y906984D01*
X76610Y907019D01*
X76647Y907055D01*
X76691Y907082D01*
X76744Y907145D01*
X76804Y907201D01*
X76830Y907245D01*
X76863Y907285D01*
X76895Y907360D01*
X76936Y907431D01*
X76947Y907482D01*
X76967Y907529D01*
X76976Y907611D01*
X76994Y907691D01*
X76989Y907742D01*
X76995Y907794D01*
X76979Y907874D01*
X76972Y907956D01*
X76953Y908004D01*
X76943Y908054D01*
X76915Y908098D01*
X76873Y908203D01*
X76760Y908342D01*
X76736Y908380D01*
X76057Y909059D01*
X76040Y909072D01*
X76026Y909088D01*
X75933Y909150D01*
X75843Y909217D01*
X75823Y909224D01*
X75805Y909235D01*
X75761Y909245D01*
X75591Y909304D01*
X75479Y909308D01*
X75428Y909319D01*
X56246Y909319D01*
X37205Y928360D01*
X37205Y938583D01*
X37190Y938685D01*
X37182Y938787D01*
X37170Y938815D01*
X37165Y938846D01*
X37121Y938938D01*
X37083Y939034D01*
X37063Y939057D01*
X37050Y939085D01*
X36980Y939160D01*
X36915Y939240D01*
X36889Y939257D01*
X36868Y939279D01*
X36779Y939330D01*
X36694Y939387D01*
X36670Y939393D01*
X36638Y939411D01*
X36378Y939469D01*
X36340Y939466D01*
X36317Y939471D01*
X36263Y939471D01*
X35221Y940513D01*
X35221Y955487D01*
X36263Y956529D01*
X43737Y956529D01*
X44372Y955894D01*
X44384Y955885D01*
X44391Y955876D01*
X44444Y955840D01*
X44455Y955833D01*
X44533Y955766D01*
X44561Y955754D01*
X44586Y955736D01*
X44683Y955702D01*
X44777Y955662D01*
X44808Y955659D01*
X44837Y955649D01*
X44940Y955645D01*
X45042Y955634D01*
X45072Y955640D01*
X45103Y955639D01*
X45202Y955666D01*
X45302Y955686D01*
X45323Y955699D01*
X45359Y955709D01*
X45465Y955777D01*
X45513Y955800D01*
X45537Y955823D01*
X45583Y955852D01*
X45608Y955881D01*
X45628Y955894D01*
X46263Y956529D01*
X53737Y956529D01*
X54372Y955894D01*
X54384Y955885D01*
X54391Y955876D01*
X54444Y955840D01*
X54455Y955833D01*
X54533Y955766D01*
X54561Y955754D01*
X54586Y955736D01*
X54683Y955702D01*
X54777Y955662D01*
X54808Y955659D01*
X54837Y955649D01*
X54940Y955645D01*
X55042Y955634D01*
X55072Y955640D01*
X55103Y955639D01*
X55202Y955666D01*
X55302Y955686D01*
X55323Y955699D01*
X55359Y955709D01*
X55465Y955777D01*
X55513Y955800D01*
X55537Y955823D01*
X55583Y955852D01*
X55608Y955881D01*
X55628Y955894D01*
X56437Y956703D01*
X56450Y956719D01*
X56466Y956733D01*
X56528Y956827D01*
X56595Y956917D01*
X56602Y956936D01*
X56613Y956954D01*
X56623Y956999D01*
X56682Y957168D01*
X56686Y957280D01*
X56697Y957331D01*
X56697Y959258D01*
X64672Y967233D01*
X145640Y967233D01*
X153303Y959570D01*
X153303Y957331D01*
X153306Y957310D01*
X153304Y957289D01*
X153326Y957179D01*
X153343Y957068D01*
X153352Y957049D01*
X153356Y957028D01*
X153380Y956990D01*
X153458Y956829D01*
X153535Y956746D01*
X153563Y956703D01*
X153833Y956432D01*
X153916Y956371D01*
X153994Y956305D01*
X154022Y956293D01*
X154047Y956275D01*
X154144Y956241D01*
X154238Y956201D01*
X154269Y956197D01*
X154298Y956187D01*
X154401Y956184D01*
X154503Y956173D01*
X154533Y956179D01*
X154564Y956178D01*
X154663Y956205D01*
X154764Y956225D01*
X154784Y956238D01*
X154820Y956248D01*
X155045Y956391D01*
X155069Y956420D01*
X155089Y956432D01*
X155440Y956783D01*
X156019Y957118D01*
X156665Y957291D01*
X158501Y957291D01*
X158501Y948611D01*
X158516Y948510D01*
X158524Y948407D01*
X158536Y948379D01*
X158540Y948348D01*
X158585Y948256D01*
X158623Y948161D01*
X158643Y948137D01*
X158656Y948109D01*
X158726Y948034D01*
X158752Y948003D01*
X158732Y947987D01*
X158715Y947961D01*
X158693Y947940D01*
X158642Y947851D01*
X158585Y947766D01*
X158579Y947742D01*
X158561Y947709D01*
X158503Y947450D01*
X158506Y947412D01*
X158501Y947389D01*
X158501Y938709D01*
X156665Y938709D01*
X156019Y938882D01*
X155440Y939217D01*
X155089Y939568D01*
X155007Y939628D01*
X154928Y939695D01*
X154900Y939707D01*
X154875Y939725D01*
X154779Y939759D01*
X154684Y939799D01*
X154653Y939803D01*
X154624Y939813D01*
X154522Y939816D01*
X154420Y939827D01*
X154389Y939821D01*
X154359Y939822D01*
X154260Y939795D01*
X154159Y939775D01*
X154139Y939762D01*
X154102Y939752D01*
X153878Y939609D01*
X153853Y939580D01*
X153833Y939568D01*
X153563Y939297D01*
X153550Y939280D01*
X153534Y939267D01*
X153472Y939174D01*
X153405Y939083D01*
X153398Y939064D01*
X153387Y939046D01*
X153377Y939002D01*
X153318Y938832D01*
X153314Y938720D01*
X153303Y938669D01*
X153303Y903440D01*
X153310Y903389D01*
X153309Y903337D01*
X153330Y903258D01*
X153343Y903177D01*
X153365Y903130D01*
X153379Y903081D01*
X153423Y903011D01*
X153458Y902938D01*
X153493Y902900D01*
X153521Y902856D01*
X153584Y902803D01*
X153640Y902743D01*
X153684Y902718D01*
X153724Y902684D01*
X153799Y902652D01*
X153870Y902611D01*
X153921Y902600D01*
X153968Y902580D01*
X154050Y902571D01*
X154130Y902554D01*
X154181Y902558D01*
X154233Y902552D01*
X154313Y902569D01*
X154395Y902575D01*
X154443Y902594D01*
X154493Y902604D01*
X154537Y902632D01*
X154642Y902674D01*
X154781Y902787D01*
X154819Y902812D01*
X156207Y904200D01*
X165269Y904200D01*
X166962Y902507D01*
X166962Y902317D01*
X166969Y902266D01*
X166968Y902215D01*
X166985Y902151D01*
X166985Y902145D01*
X166989Y902137D01*
X166989Y902135D01*
X167002Y902054D01*
X167024Y902008D01*
X167038Y901958D01*
X167082Y901889D01*
X167117Y901815D01*
X167153Y901777D01*
X167180Y901734D01*
X167243Y901681D01*
X167299Y901621D01*
X167344Y901595D01*
X167383Y901562D01*
X167458Y901529D01*
X167529Y901489D01*
X167580Y901478D01*
X167627Y901457D01*
X167709Y901449D01*
X167789Y901431D01*
X167840Y901435D01*
X167892Y901430D01*
X167972Y901446D01*
X168054Y901453D01*
X168102Y901472D01*
X168152Y901482D01*
X168196Y901510D01*
X168301Y901552D01*
X168375Y901612D01*
X168384Y901617D01*
X168409Y901640D01*
X168440Y901665D01*
X168478Y901689D01*
X168728Y901939D01*
X177272Y901939D01*
X178779Y900432D01*
X178779Y893538D01*
X177272Y892031D01*
X168728Y892031D01*
X167766Y892993D01*
X167683Y893054D01*
X167605Y893121D01*
X167577Y893133D01*
X167552Y893151D01*
X167455Y893185D01*
X167360Y893225D01*
X167330Y893228D01*
X167301Y893238D01*
X167198Y893242D01*
X167096Y893252D01*
X167066Y893246D01*
X167035Y893247D01*
X166936Y893220D01*
X166835Y893200D01*
X166815Y893187D01*
X166779Y893177D01*
X166554Y893035D01*
X166530Y893006D01*
X166510Y892993D01*
X165269Y891752D01*
X158537Y891752D01*
X158486Y891745D01*
X158434Y891746D01*
X158355Y891725D01*
X158274Y891712D01*
X158228Y891690D01*
X158178Y891676D01*
X158109Y891632D01*
X158035Y891597D01*
X157997Y891562D01*
X157954Y891534D01*
X157900Y891471D01*
X157840Y891415D01*
X157815Y891371D01*
X157781Y891331D01*
X157749Y891256D01*
X157709Y891185D01*
X157697Y891134D01*
X157677Y891087D01*
X157669Y891005D01*
X157651Y890925D01*
X157655Y890874D01*
X157650Y890822D01*
X157666Y890742D01*
X157672Y890660D01*
X157692Y890612D01*
X157702Y890562D01*
X157729Y890518D01*
X157771Y890413D01*
X157885Y890274D01*
X157909Y890236D01*
X158925Y889220D01*
X158942Y889207D01*
X158955Y889191D01*
X159049Y889129D01*
X159139Y889062D01*
X159159Y889055D01*
X159176Y889044D01*
X159221Y889034D01*
X159390Y888975D01*
X159503Y888971D01*
X159553Y888960D01*
X165269Y888960D01*
X166327Y887902D01*
X166409Y887841D01*
X166488Y887774D01*
X166516Y887762D01*
X166541Y887744D01*
X166638Y887710D01*
X166732Y887670D01*
X166763Y887667D01*
X166792Y887657D01*
X166895Y887653D01*
X166997Y887643D01*
X167027Y887649D01*
X167058Y887647D01*
X167157Y887674D01*
X167257Y887695D01*
X167277Y887707D01*
X167314Y887717D01*
X167538Y887860D01*
X167563Y887889D01*
X167583Y887902D01*
X167746Y888065D01*
X168506Y888503D01*
X169354Y888731D01*
X171413Y888731D01*
X171413Y883714D01*
X171429Y883612D01*
X171437Y883510D01*
X171448Y883481D01*
X171453Y883451D01*
X171498Y883359D01*
X171536Y883263D01*
X171555Y883239D01*
X171569Y883212D01*
X171639Y883137D01*
X171704Y883057D01*
X171729Y883040D01*
X171750Y883017D01*
X171760Y883012D01*
X171724Y882979D01*
X171645Y882914D01*
X171627Y882889D01*
X171605Y882868D01*
X171554Y882779D01*
X171497Y882693D01*
X171492Y882670D01*
X171473Y882637D01*
X171415Y882377D01*
X171418Y882340D01*
X171413Y882316D01*
X171413Y877100D01*
X171416Y877079D01*
X171414Y877058D01*
X171436Y876947D01*
X171453Y876837D01*
X171462Y876818D01*
X171466Y876797D01*
X171491Y876759D01*
X171569Y876597D01*
X171646Y876515D01*
X171673Y876471D01*
X183279Y864866D01*
X183279Y858485D01*
X183294Y858383D01*
X183302Y858281D01*
X183314Y858253D01*
X183319Y858222D01*
X183363Y858130D01*
X183401Y858034D01*
X183421Y858011D01*
X183434Y857983D01*
X183504Y857908D01*
X183569Y857828D01*
X183595Y857811D01*
X183616Y857789D01*
X183705Y857738D01*
X183790Y857681D01*
X183814Y857675D01*
X183846Y857657D01*
X183868Y857652D01*
X189505Y852015D01*
X189505Y844121D01*
X183923Y838539D01*
X176699Y838539D01*
X176649Y838532D01*
X176597Y838533D01*
X176518Y838512D01*
X176437Y838499D01*
X176390Y838477D01*
X176340Y838463D01*
X176271Y838419D01*
X176197Y838384D01*
X176160Y838349D01*
X176116Y838321D01*
X176063Y838258D01*
X176003Y838202D01*
X175977Y838158D01*
X175944Y838118D01*
X175912Y838043D01*
X175871Y837972D01*
X175860Y837921D01*
X175840Y837874D01*
X175831Y837792D01*
X175813Y837712D01*
X175818Y837661D01*
X175812Y837609D01*
X175828Y837529D01*
X175835Y837447D01*
X175854Y837399D01*
X175864Y837349D01*
X175892Y837305D01*
X175934Y837200D01*
X176047Y837061D01*
X176071Y837023D01*
X180637Y832457D01*
X180654Y832444D01*
X180668Y832428D01*
X180761Y832366D01*
X180851Y832299D01*
X180871Y832292D01*
X180889Y832281D01*
X180933Y832271D01*
X181102Y832212D01*
X181215Y832208D01*
X181266Y832197D01*
X183923Y832197D01*
X189505Y826615D01*
X189505Y818721D01*
X183923Y813139D01*
X176029Y813139D01*
X175842Y813326D01*
X175760Y813387D01*
X175682Y813453D01*
X175653Y813465D01*
X175629Y813484D01*
X175532Y813517D01*
X175437Y813558D01*
X175406Y813561D01*
X175377Y813571D01*
X175275Y813575D01*
X175173Y813585D01*
X175143Y813579D01*
X175112Y813580D01*
X175013Y813553D01*
X174912Y813533D01*
X174892Y813520D01*
X174855Y813510D01*
X174631Y813368D01*
X174606Y813339D01*
X174586Y813326D01*
X169933Y808673D01*
X169920Y808656D01*
X169904Y808642D01*
X169842Y808549D01*
X169775Y808459D01*
X169768Y808439D01*
X169757Y808421D01*
X169747Y808377D01*
X169688Y808208D01*
X169684Y808095D01*
X169673Y808044D01*
X169673Y803662D01*
X169680Y803611D01*
X169679Y803560D01*
X169700Y803481D01*
X169713Y803400D01*
X169735Y803353D01*
X169749Y803303D01*
X169793Y803234D01*
X169828Y803160D01*
X169863Y803123D01*
X169891Y803079D01*
X169954Y803026D01*
X170010Y802966D01*
X170054Y802940D01*
X170094Y802907D01*
X170169Y802875D01*
X170240Y802834D01*
X170291Y802823D01*
X170338Y802803D01*
X170420Y802794D01*
X170500Y802776D01*
X170551Y802780D01*
X170603Y802775D01*
X170683Y802791D01*
X170765Y802798D01*
X170813Y802817D01*
X170863Y802827D01*
X170907Y802855D01*
X171012Y802897D01*
X171151Y803010D01*
X171189Y803034D01*
X175713Y807559D01*
X178199Y807559D01*
X178199Y798157D01*
X178214Y798056D01*
X178222Y797953D01*
X178234Y797925D01*
X178239Y797894D01*
X178283Y797802D01*
X178321Y797707D01*
X178341Y797683D01*
X178354Y797655D01*
X178424Y797580D01*
X178489Y797500D01*
X178515Y797483D01*
X178536Y797461D01*
X178625Y797410D01*
X178710Y797353D01*
X178734Y797348D01*
X178766Y797329D01*
X179026Y797271D01*
X179064Y797274D01*
X179087Y797269D01*
X179977Y797269D01*
X179977Y797267D01*
X179087Y797267D01*
X178985Y797252D01*
X178883Y797243D01*
X178855Y797232D01*
X178824Y797227D01*
X178732Y797183D01*
X178636Y797144D01*
X178613Y797125D01*
X178585Y797112D01*
X178510Y797042D01*
X178430Y796977D01*
X178413Y796951D01*
X178391Y796930D01*
X178340Y796841D01*
X178283Y796756D01*
X178277Y796732D01*
X178259Y796699D01*
X178201Y796440D01*
X178204Y796402D01*
X178199Y796379D01*
X178199Y786977D01*
X175713Y786977D01*
X171189Y791502D01*
X171148Y791532D01*
X171112Y791570D01*
X171041Y791611D01*
X170975Y791659D01*
X170926Y791676D01*
X170882Y791702D01*
X170802Y791720D01*
X170724Y791747D01*
X170672Y791749D01*
X170622Y791760D01*
X170540Y791753D01*
X170458Y791756D01*
X170409Y791742D01*
X170357Y791738D01*
X170281Y791708D01*
X170202Y791686D01*
X170158Y791658D01*
X170110Y791639D01*
X170047Y791587D01*
X169978Y791543D01*
X169944Y791504D01*
X169904Y791472D01*
X169859Y791403D01*
X169806Y791341D01*
X169785Y791293D01*
X169757Y791250D01*
X169745Y791200D01*
X169701Y791096D01*
X169683Y790918D01*
X169673Y790874D01*
X169673Y789290D01*
X162194Y781811D01*
X125334Y781811D01*
G37*
%LPD*%
G36*
X110993Y907644D02*
X110993Y907644D01*
X111075Y907651D01*
X111123Y907670D01*
X111173Y907680D01*
X111217Y907708D01*
X111322Y907750D01*
X111461Y907863D01*
X111499Y907887D01*
X126945Y923333D01*
X126958Y923350D01*
X126974Y923364D01*
X127036Y923457D01*
X127103Y923547D01*
X127110Y923567D01*
X127121Y923585D01*
X127131Y923629D01*
X127190Y923798D01*
X127194Y923911D01*
X127205Y923962D01*
X127205Y938583D01*
X127190Y938685D01*
X127182Y938787D01*
X127170Y938815D01*
X127165Y938846D01*
X127121Y938938D01*
X127083Y939034D01*
X127063Y939057D01*
X127050Y939085D01*
X126980Y939160D01*
X126915Y939240D01*
X126889Y939257D01*
X126868Y939279D01*
X126779Y939330D01*
X126694Y939387D01*
X126670Y939393D01*
X126638Y939411D01*
X126378Y939469D01*
X126340Y939466D01*
X126317Y939471D01*
X126263Y939471D01*
X125221Y940513D01*
X125221Y955487D01*
X126263Y956529D01*
X133737Y956529D01*
X134372Y955894D01*
X134384Y955885D01*
X134391Y955876D01*
X134444Y955840D01*
X134455Y955833D01*
X134533Y955766D01*
X134561Y955754D01*
X134586Y955736D01*
X134683Y955702D01*
X134777Y955662D01*
X134808Y955659D01*
X134837Y955649D01*
X134940Y955645D01*
X135042Y955634D01*
X135072Y955640D01*
X135103Y955639D01*
X135202Y955666D01*
X135302Y955686D01*
X135323Y955699D01*
X135359Y955709D01*
X135465Y955777D01*
X135513Y955800D01*
X135537Y955823D01*
X135583Y955852D01*
X135608Y955881D01*
X135628Y955894D01*
X136263Y956529D01*
X143737Y956529D01*
X144372Y955894D01*
X144384Y955885D01*
X144391Y955876D01*
X144444Y955840D01*
X144455Y955833D01*
X144533Y955766D01*
X144561Y955754D01*
X144586Y955736D01*
X144683Y955702D01*
X144777Y955662D01*
X144808Y955659D01*
X144837Y955649D01*
X144939Y955645D01*
X145042Y955634D01*
X145072Y955640D01*
X145103Y955639D01*
X145202Y955666D01*
X145302Y955686D01*
X145323Y955699D01*
X145359Y955709D01*
X145465Y955777D01*
X145513Y955800D01*
X145537Y955823D01*
X145583Y955852D01*
X145608Y955881D01*
X145628Y955894D01*
X146005Y956270D01*
X146066Y956353D01*
X146132Y956431D01*
X146144Y956459D01*
X146163Y956484D01*
X146196Y956581D01*
X146237Y956676D01*
X146240Y956706D01*
X146250Y956735D01*
X146253Y956838D01*
X146264Y956940D01*
X146258Y956970D01*
X146259Y957001D01*
X146232Y957100D01*
X146212Y957201D01*
X146199Y957221D01*
X146189Y957257D01*
X146047Y957482D01*
X146018Y957506D01*
X146005Y957526D01*
X143164Y960367D01*
X143147Y960380D01*
X143134Y960396D01*
X143040Y960458D01*
X142950Y960525D01*
X142930Y960532D01*
X142913Y960543D01*
X142868Y960553D01*
X142699Y960612D01*
X142586Y960616D01*
X142536Y960627D01*
X67776Y960627D01*
X67755Y960624D01*
X67734Y960626D01*
X67624Y960604D01*
X67513Y960587D01*
X67494Y960578D01*
X67474Y960574D01*
X67435Y960550D01*
X67274Y960472D01*
X67191Y960395D01*
X67148Y960367D01*
X65466Y958685D01*
X65446Y958658D01*
X65419Y958635D01*
X65367Y958551D01*
X65308Y958471D01*
X65297Y958439D01*
X65279Y958409D01*
X65254Y958314D01*
X65221Y958220D01*
X65220Y958186D01*
X65211Y958152D01*
X65215Y958054D01*
X65212Y957955D01*
X65221Y957921D01*
X65222Y957887D01*
X65256Y957794D01*
X65282Y957698D01*
X65300Y957669D01*
X65312Y957637D01*
X65371Y957557D01*
X65424Y957474D01*
X65451Y957452D01*
X65471Y957424D01*
X65552Y957366D01*
X65627Y957302D01*
X65659Y957288D01*
X65687Y957268D01*
X65780Y957236D01*
X65871Y957197D01*
X65906Y957194D01*
X65938Y957183D01*
X65991Y957185D01*
X66136Y957170D01*
X66271Y957197D01*
X66324Y957199D01*
X66665Y957291D01*
X68501Y957291D01*
X68501Y948611D01*
X68516Y948510D01*
X68524Y948407D01*
X68536Y948379D01*
X68540Y948348D01*
X68585Y948256D01*
X68623Y948161D01*
X68643Y948137D01*
X68656Y948109D01*
X68726Y948034D01*
X68752Y948003D01*
X68732Y947987D01*
X68715Y947961D01*
X68693Y947940D01*
X68642Y947851D01*
X68585Y947766D01*
X68579Y947742D01*
X68561Y947709D01*
X68503Y947450D01*
X68506Y947412D01*
X68501Y947389D01*
X68501Y938709D01*
X66665Y938709D01*
X66019Y938882D01*
X65440Y939217D01*
X65089Y939568D01*
X65007Y939628D01*
X64928Y939695D01*
X64900Y939707D01*
X64875Y939725D01*
X64779Y939759D01*
X64684Y939799D01*
X64653Y939803D01*
X64624Y939813D01*
X64522Y939816D01*
X64420Y939827D01*
X64389Y939821D01*
X64359Y939822D01*
X64260Y939795D01*
X64159Y939775D01*
X64139Y939762D01*
X64102Y939752D01*
X63878Y939609D01*
X63853Y939580D01*
X63833Y939568D01*
X63737Y939471D01*
X56263Y939471D01*
X55628Y940106D01*
X55546Y940167D01*
X55467Y940234D01*
X55439Y940246D01*
X55414Y940264D01*
X55317Y940298D01*
X55223Y940338D01*
X55192Y940341D01*
X55163Y940351D01*
X55061Y940355D01*
X54958Y940366D01*
X54928Y940360D01*
X54897Y940361D01*
X54798Y940334D01*
X54698Y940314D01*
X54678Y940301D01*
X54641Y940291D01*
X54417Y940148D01*
X54392Y940119D01*
X54372Y940106D01*
X53737Y939471D01*
X53683Y939471D01*
X53581Y939456D01*
X53479Y939448D01*
X53451Y939436D01*
X53420Y939431D01*
X53328Y939387D01*
X53232Y939349D01*
X53209Y939329D01*
X53181Y939316D01*
X53106Y939246D01*
X53026Y939181D01*
X53009Y939155D01*
X52987Y939134D01*
X52936Y939045D01*
X52879Y938960D01*
X52873Y938936D01*
X52855Y938904D01*
X52797Y938644D01*
X52800Y938606D01*
X52795Y938583D01*
X52795Y928410D01*
X52798Y928389D01*
X52796Y928368D01*
X52818Y928258D01*
X52835Y928147D01*
X52844Y928128D01*
X52848Y928107D01*
X52872Y928069D01*
X52950Y927907D01*
X53027Y927825D01*
X53055Y927781D01*
X61095Y919741D01*
X61112Y919728D01*
X61126Y919712D01*
X61219Y919650D01*
X61309Y919583D01*
X61329Y919576D01*
X61347Y919565D01*
X61391Y919555D01*
X61560Y919496D01*
X61673Y919492D01*
X61724Y919481D01*
X96408Y919481D01*
X104021Y911867D01*
X104038Y911854D01*
X104052Y911838D01*
X104145Y911776D01*
X104235Y911709D01*
X104255Y911702D01*
X104273Y911691D01*
X104317Y911681D01*
X104486Y911622D01*
X104599Y911618D01*
X104650Y911607D01*
X107155Y911607D01*
X109983Y908779D01*
X109983Y908515D01*
X109990Y908465D01*
X109989Y908413D01*
X110010Y908334D01*
X110023Y908253D01*
X110045Y908206D01*
X110059Y908156D01*
X110103Y908087D01*
X110138Y908013D01*
X110173Y907976D01*
X110201Y907932D01*
X110264Y907879D01*
X110320Y907819D01*
X110364Y907793D01*
X110404Y907760D01*
X110479Y907728D01*
X110550Y907687D01*
X110601Y907676D01*
X110648Y907656D01*
X110730Y907647D01*
X110810Y907629D01*
X110861Y907634D01*
X110913Y907628D01*
X110993Y907644D01*
G37*
G36*
X144261Y822618D02*
X144261Y822618D01*
X144363Y822626D01*
X144391Y822638D01*
X144422Y822643D01*
X144514Y822687D01*
X144610Y822725D01*
X144633Y822745D01*
X144661Y822758D01*
X144736Y822828D01*
X144816Y822893D01*
X144833Y822919D01*
X144855Y822940D01*
X144906Y823029D01*
X144963Y823114D01*
X144969Y823138D01*
X144987Y823170D01*
X145045Y823430D01*
X145042Y823468D01*
X145047Y823491D01*
X145047Y826615D01*
X150629Y832197D01*
X158523Y832197D01*
X163075Y827645D01*
X163116Y827614D01*
X163152Y827576D01*
X163223Y827536D01*
X163289Y827487D01*
X163338Y827470D01*
X163382Y827444D01*
X163462Y827427D01*
X163540Y827400D01*
X163592Y827398D01*
X163642Y827387D01*
X163724Y827393D01*
X163806Y827390D01*
X163855Y827404D01*
X163907Y827408D01*
X163983Y827439D01*
X164062Y827460D01*
X164106Y827488D01*
X164154Y827507D01*
X164217Y827559D01*
X164286Y827603D01*
X164320Y827642D01*
X164360Y827675D01*
X164405Y827743D01*
X164458Y827806D01*
X164479Y827853D01*
X164507Y827896D01*
X164519Y827946D01*
X164563Y828050D01*
X164581Y828228D01*
X164591Y828273D01*
X164591Y833732D01*
X164588Y833753D01*
X164590Y833774D01*
X164568Y833884D01*
X164551Y833995D01*
X164542Y834014D01*
X164538Y834035D01*
X164514Y834073D01*
X164436Y834235D01*
X164359Y834317D01*
X164331Y834361D01*
X159966Y838726D01*
X159883Y838787D01*
X159805Y838853D01*
X159777Y838865D01*
X159752Y838884D01*
X159655Y838917D01*
X159560Y838958D01*
X159530Y838961D01*
X159501Y838971D01*
X159398Y838975D01*
X159296Y838985D01*
X159266Y838979D01*
X159235Y838980D01*
X159136Y838953D01*
X159035Y838933D01*
X159015Y838920D01*
X158979Y838910D01*
X158754Y838768D01*
X158730Y838739D01*
X158710Y838726D01*
X158523Y838539D01*
X150629Y838539D01*
X145047Y844121D01*
X145047Y852015D01*
X150629Y857597D01*
X158523Y857597D01*
X163583Y852537D01*
X163624Y852506D01*
X163660Y852468D01*
X163731Y852428D01*
X163797Y852379D01*
X163846Y852362D01*
X163890Y852336D01*
X163970Y852319D01*
X164048Y852292D01*
X164100Y852290D01*
X164150Y852279D01*
X164232Y852285D01*
X164314Y852282D01*
X164363Y852296D01*
X164415Y852300D01*
X164491Y852331D01*
X164570Y852352D01*
X164614Y852380D01*
X164662Y852399D01*
X164725Y852451D01*
X164794Y852495D01*
X164828Y852534D01*
X164868Y852567D01*
X164913Y852635D01*
X164966Y852698D01*
X164987Y852745D01*
X165015Y852788D01*
X165027Y852838D01*
X165071Y852942D01*
X165089Y853120D01*
X165099Y853165D01*
X165099Y858010D01*
X165096Y858031D01*
X165098Y858052D01*
X165076Y858162D01*
X165059Y858273D01*
X165050Y858292D01*
X165046Y858313D01*
X165022Y858351D01*
X164944Y858513D01*
X164867Y858595D01*
X164839Y858639D01*
X127077Y896401D01*
X127060Y896414D01*
X127046Y896430D01*
X126953Y896492D01*
X126863Y896559D01*
X126843Y896566D01*
X126825Y896577D01*
X126781Y896587D01*
X126612Y896646D01*
X126499Y896650D01*
X126448Y896661D01*
X125510Y896661D01*
X125489Y896658D01*
X125468Y896660D01*
X125358Y896638D01*
X125247Y896621D01*
X125228Y896612D01*
X125207Y896608D01*
X125169Y896584D01*
X125007Y896506D01*
X124925Y896429D01*
X124881Y896401D01*
X111530Y883049D01*
X95762Y883049D01*
X95660Y883034D01*
X95558Y883026D01*
X95530Y883014D01*
X95499Y883009D01*
X95407Y882965D01*
X95311Y882927D01*
X95288Y882907D01*
X95260Y882894D01*
X95185Y882824D01*
X95105Y882759D01*
X95088Y882733D01*
X95066Y882712D01*
X95015Y882623D01*
X94958Y882538D01*
X94952Y882514D01*
X94934Y882482D01*
X94876Y882222D01*
X94879Y882184D01*
X94874Y882161D01*
X94874Y881313D01*
X93181Y879620D01*
X86088Y879620D01*
X86038Y879613D01*
X85986Y879614D01*
X85907Y879593D01*
X85826Y879580D01*
X85779Y879558D01*
X85729Y879544D01*
X85660Y879500D01*
X85586Y879465D01*
X85549Y879430D01*
X85505Y879402D01*
X85452Y879339D01*
X85392Y879283D01*
X85366Y879239D01*
X85333Y879199D01*
X85301Y879124D01*
X85260Y879053D01*
X85249Y879002D01*
X85229Y878955D01*
X85220Y878873D01*
X85202Y878793D01*
X85207Y878742D01*
X85201Y878690D01*
X85217Y878610D01*
X85224Y878528D01*
X85243Y878480D01*
X85253Y878430D01*
X85281Y878386D01*
X85323Y878281D01*
X85436Y878142D01*
X85460Y878104D01*
X88908Y874656D01*
X88925Y874643D01*
X88939Y874627D01*
X89032Y874565D01*
X89122Y874498D01*
X89142Y874491D01*
X89160Y874480D01*
X89204Y874470D01*
X89373Y874411D01*
X89486Y874407D01*
X89537Y874396D01*
X117617Y874396D01*
X135690Y856323D01*
X135690Y823491D01*
X135705Y823389D01*
X135713Y823287D01*
X135725Y823259D01*
X135730Y823228D01*
X135774Y823136D01*
X135812Y823040D01*
X135832Y823017D01*
X135845Y822989D01*
X135915Y822914D01*
X135980Y822834D01*
X136006Y822817D01*
X136027Y822795D01*
X136116Y822744D01*
X136201Y822687D01*
X136225Y822681D01*
X136257Y822663D01*
X136517Y822605D01*
X136555Y822608D01*
X136578Y822603D01*
X144159Y822603D01*
X144261Y822618D01*
G37*
G36*
X108867Y888642D02*
X108867Y888642D01*
X108888Y888640D01*
X108998Y888662D01*
X109109Y888679D01*
X109128Y888688D01*
X109149Y888692D01*
X109187Y888716D01*
X109349Y888794D01*
X109431Y888871D01*
X109475Y888899D01*
X120929Y900353D01*
X120942Y900370D01*
X120958Y900384D01*
X121020Y900477D01*
X121087Y900567D01*
X121094Y900587D01*
X121105Y900605D01*
X121115Y900649D01*
X121174Y900818D01*
X121178Y900931D01*
X121189Y900982D01*
X121189Y903487D01*
X124017Y906315D01*
X126522Y906315D01*
X126543Y906318D01*
X126564Y906316D01*
X126674Y906338D01*
X126785Y906355D01*
X126804Y906364D01*
X126825Y906368D01*
X126863Y906392D01*
X127025Y906470D01*
X127107Y906547D01*
X127151Y906575D01*
X136945Y916369D01*
X136958Y916386D01*
X136974Y916400D01*
X137036Y916493D01*
X137103Y916583D01*
X137110Y916603D01*
X137121Y916621D01*
X137131Y916665D01*
X137190Y916834D01*
X137194Y916947D01*
X137205Y916998D01*
X137205Y938583D01*
X137190Y938685D01*
X137182Y938787D01*
X137170Y938815D01*
X137165Y938846D01*
X137121Y938938D01*
X137083Y939034D01*
X137063Y939057D01*
X137050Y939085D01*
X136980Y939160D01*
X136915Y939240D01*
X136889Y939257D01*
X136868Y939279D01*
X136779Y939330D01*
X136694Y939387D01*
X136670Y939393D01*
X136638Y939411D01*
X136378Y939469D01*
X136340Y939466D01*
X136317Y939471D01*
X136263Y939471D01*
X135628Y940106D01*
X135546Y940167D01*
X135467Y940234D01*
X135439Y940246D01*
X135414Y940264D01*
X135317Y940298D01*
X135223Y940338D01*
X135192Y940341D01*
X135163Y940351D01*
X135061Y940355D01*
X134958Y940366D01*
X134928Y940360D01*
X134897Y940361D01*
X134798Y940334D01*
X134698Y940314D01*
X134678Y940301D01*
X134641Y940291D01*
X134417Y940148D01*
X134392Y940119D01*
X134372Y940106D01*
X133737Y939471D01*
X133683Y939471D01*
X133581Y939456D01*
X133479Y939448D01*
X133451Y939436D01*
X133420Y939431D01*
X133328Y939387D01*
X133232Y939349D01*
X133209Y939329D01*
X133181Y939316D01*
X133106Y939246D01*
X133026Y939181D01*
X133009Y939155D01*
X132987Y939134D01*
X132936Y939045D01*
X132879Y938960D01*
X132873Y938936D01*
X132855Y938904D01*
X132797Y938644D01*
X132800Y938606D01*
X132795Y938583D01*
X132795Y921278D01*
X109362Y897845D01*
X95540Y897845D01*
X95438Y897830D01*
X95336Y897822D01*
X95308Y897810D01*
X95277Y897805D01*
X95185Y897761D01*
X95089Y897723D01*
X95066Y897703D01*
X95038Y897690D01*
X94963Y897620D01*
X94883Y897555D01*
X94866Y897529D01*
X94844Y897508D01*
X94793Y897419D01*
X94736Y897334D01*
X94730Y897310D01*
X94712Y897278D01*
X94654Y897018D01*
X94657Y896980D01*
X94652Y896957D01*
X94652Y896109D01*
X92959Y894416D01*
X86525Y894416D01*
X86504Y894413D01*
X86483Y894415D01*
X86373Y894393D01*
X86262Y894376D01*
X86243Y894367D01*
X86222Y894363D01*
X86184Y894339D01*
X86022Y894261D01*
X85940Y894184D01*
X85896Y894156D01*
X85324Y893584D01*
X85294Y893543D01*
X85256Y893507D01*
X85215Y893436D01*
X85167Y893370D01*
X85150Y893321D01*
X85124Y893277D01*
X85106Y893197D01*
X85079Y893119D01*
X85078Y893067D01*
X85066Y893017D01*
X85073Y892935D01*
X85070Y892853D01*
X85084Y892804D01*
X85088Y892752D01*
X85118Y892676D01*
X85140Y892597D01*
X85168Y892553D01*
X85187Y892505D01*
X85239Y892442D01*
X85283Y892373D01*
X85322Y892339D01*
X85355Y892299D01*
X85423Y892254D01*
X85485Y892201D01*
X85533Y892180D01*
X85576Y892152D01*
X85626Y892140D01*
X85730Y892096D01*
X85908Y892078D01*
X85952Y892068D01*
X93181Y892068D01*
X94874Y890375D01*
X94874Y889527D01*
X94889Y889425D01*
X94897Y889323D01*
X94909Y889295D01*
X94914Y889264D01*
X94958Y889172D01*
X94996Y889076D01*
X95016Y889053D01*
X95029Y889025D01*
X95099Y888950D01*
X95164Y888870D01*
X95190Y888853D01*
X95211Y888831D01*
X95300Y888780D01*
X95385Y888723D01*
X95409Y888717D01*
X95441Y888699D01*
X95701Y888641D01*
X95739Y888644D01*
X95762Y888639D01*
X108846Y888639D01*
X108867Y888642D01*
G37*
G36*
X153647Y878133D02*
X153647Y878133D01*
X153729Y878130D01*
X153778Y878144D01*
X153830Y878148D01*
X153906Y878178D01*
X153985Y878200D01*
X154029Y878228D01*
X154077Y878247D01*
X154140Y878299D01*
X154209Y878343D01*
X154243Y878382D01*
X154283Y878415D01*
X154328Y878483D01*
X154381Y878545D01*
X154402Y878593D01*
X154430Y878636D01*
X154442Y878686D01*
X154486Y878790D01*
X154504Y878968D01*
X154514Y879012D01*
X154514Y883921D01*
X154511Y883942D01*
X154513Y883963D01*
X154491Y884073D01*
X154474Y884184D01*
X154465Y884203D01*
X154461Y884223D01*
X154437Y884262D01*
X154359Y884423D01*
X154282Y884506D01*
X154254Y884549D01*
X150416Y888387D01*
X150399Y888400D01*
X150386Y888416D01*
X150292Y888478D01*
X150202Y888545D01*
X150182Y888552D01*
X150165Y888563D01*
X150120Y888573D01*
X149951Y888632D01*
X149838Y888636D01*
X149788Y888647D01*
X148001Y888647D01*
X145173Y891475D01*
X145173Y895473D01*
X146437Y896737D01*
X146450Y896754D01*
X146466Y896767D01*
X146528Y896861D01*
X146595Y896951D01*
X146602Y896971D01*
X146613Y896988D01*
X146623Y897033D01*
X146682Y897202D01*
X146686Y897315D01*
X146697Y897365D01*
X146697Y938669D01*
X146694Y938690D01*
X146696Y938711D01*
X146674Y938821D01*
X146657Y938932D01*
X146648Y938951D01*
X146644Y938972D01*
X146620Y939010D01*
X146542Y939171D01*
X146465Y939254D01*
X146437Y939297D01*
X145628Y940106D01*
X145546Y940167D01*
X145467Y940234D01*
X145439Y940246D01*
X145414Y940264D01*
X145317Y940298D01*
X145223Y940338D01*
X145192Y940341D01*
X145163Y940351D01*
X145061Y940355D01*
X144958Y940366D01*
X144928Y940360D01*
X144897Y940361D01*
X144798Y940334D01*
X144698Y940314D01*
X144678Y940301D01*
X144641Y940291D01*
X144417Y940148D01*
X144392Y940119D01*
X144372Y940106D01*
X143737Y939471D01*
X143683Y939471D01*
X143581Y939456D01*
X143479Y939448D01*
X143451Y939436D01*
X143420Y939431D01*
X143328Y939387D01*
X143232Y939349D01*
X143209Y939329D01*
X143181Y939316D01*
X143106Y939246D01*
X143026Y939181D01*
X143009Y939155D01*
X142987Y939134D01*
X142936Y939045D01*
X142879Y938960D01*
X142873Y938936D01*
X142855Y938904D01*
X142797Y938644D01*
X142800Y938606D01*
X142795Y938583D01*
X142795Y914314D01*
X131103Y902623D01*
X131090Y902606D01*
X131074Y902592D01*
X131012Y902499D01*
X130945Y902409D01*
X130938Y902389D01*
X130927Y902371D01*
X130917Y902327D01*
X130858Y902158D01*
X130854Y902045D01*
X130843Y901994D01*
X130843Y900908D01*
X130846Y900887D01*
X130844Y900866D01*
X130866Y900756D01*
X130883Y900645D01*
X130892Y900626D01*
X130896Y900605D01*
X130920Y900567D01*
X130998Y900405D01*
X131075Y900323D01*
X131103Y900279D01*
X152998Y878384D01*
X153039Y878354D01*
X153075Y878316D01*
X153146Y878275D01*
X153212Y878227D01*
X153261Y878210D01*
X153305Y878184D01*
X153385Y878166D01*
X153463Y878139D01*
X153515Y878138D01*
X153565Y878126D01*
X153647Y878133D01*
G37*
%LPC*%
G36*
X35899Y890958D02*
X35899Y890958D01*
X34206Y892651D01*
X34206Y892821D01*
X34199Y892872D01*
X34200Y892923D01*
X34179Y893003D01*
X34166Y893084D01*
X34144Y893130D01*
X34130Y893180D01*
X34086Y893249D01*
X34051Y893323D01*
X34016Y893361D01*
X33988Y893404D01*
X33925Y893457D01*
X33869Y893517D01*
X33825Y893543D01*
X33785Y893576D01*
X33710Y893609D01*
X33639Y893649D01*
X33588Y893660D01*
X33541Y893681D01*
X33459Y893689D01*
X33379Y893707D01*
X33328Y893703D01*
X33276Y893708D01*
X33196Y893692D01*
X33114Y893685D01*
X33066Y893666D01*
X33016Y893656D01*
X32972Y893628D01*
X32867Y893586D01*
X32728Y893473D01*
X32690Y893449D01*
X31272Y892031D01*
X22728Y892031D01*
X21221Y893538D01*
X21221Y900432D01*
X22728Y901939D01*
X31272Y901939D01*
X32690Y900521D01*
X32731Y900490D01*
X32767Y900453D01*
X32838Y900412D01*
X32904Y900363D01*
X32953Y900346D01*
X32997Y900321D01*
X33077Y900303D01*
X33155Y900276D01*
X33207Y900274D01*
X33257Y900263D01*
X33339Y900270D01*
X33421Y900267D01*
X33470Y900280D01*
X33522Y900285D01*
X33598Y900315D01*
X33677Y900337D01*
X33721Y900364D01*
X33769Y900384D01*
X33832Y900435D01*
X33901Y900479D01*
X33935Y900519D01*
X33975Y900551D01*
X34020Y900620D01*
X34073Y900682D01*
X34094Y900729D01*
X34122Y900772D01*
X34134Y900823D01*
X34178Y900926D01*
X34196Y901105D01*
X34206Y901149D01*
X34206Y901713D01*
X35899Y903406D01*
X44961Y903406D01*
X46654Y901713D01*
X46654Y892651D01*
X44961Y890958D01*
X35899Y890958D01*
G37*
%LPD*%
G36*
X148874Y787408D02*
X148874Y787408D01*
X148926Y787407D01*
X149005Y787428D01*
X149086Y787441D01*
X149132Y787463D01*
X149182Y787477D01*
X149252Y787521D01*
X149325Y787556D01*
X149363Y787591D01*
X149407Y787619D01*
X149460Y787682D01*
X149520Y787738D01*
X149545Y787782D01*
X149579Y787822D01*
X149611Y787897D01*
X149652Y787968D01*
X149663Y788019D01*
X149683Y788066D01*
X149692Y788148D01*
X149709Y788228D01*
X149705Y788279D01*
X149710Y788331D01*
X149694Y788411D01*
X149688Y788493D01*
X149669Y788541D01*
X149658Y788591D01*
X149631Y788635D01*
X149589Y788740D01*
X149476Y788879D01*
X149451Y788917D01*
X145047Y793321D01*
X145047Y797179D01*
X145032Y797281D01*
X145024Y797383D01*
X145012Y797411D01*
X145007Y797442D01*
X144963Y797534D01*
X144925Y797630D01*
X144905Y797653D01*
X144892Y797681D01*
X144822Y797756D01*
X144757Y797836D01*
X144731Y797853D01*
X144710Y797875D01*
X144621Y797926D01*
X144536Y797983D01*
X144512Y797989D01*
X144480Y798007D01*
X144220Y798065D01*
X144182Y798062D01*
X144159Y798067D01*
X121710Y798067D01*
X121608Y798052D01*
X121506Y798044D01*
X121478Y798032D01*
X121447Y798027D01*
X121355Y797983D01*
X121259Y797945D01*
X121236Y797925D01*
X121208Y797912D01*
X121133Y797842D01*
X121053Y797777D01*
X121036Y797751D01*
X121014Y797730D01*
X120963Y797641D01*
X120906Y797556D01*
X120900Y797532D01*
X120882Y797500D01*
X120824Y797240D01*
X120827Y797202D01*
X120822Y797179D01*
X120822Y794597D01*
X120825Y794576D01*
X120823Y794555D01*
X120845Y794445D01*
X120862Y794334D01*
X120871Y794315D01*
X120875Y794294D01*
X120899Y794256D01*
X120977Y794094D01*
X121054Y794012D01*
X121082Y793968D01*
X127389Y787661D01*
X127406Y787648D01*
X127420Y787632D01*
X127513Y787570D01*
X127603Y787503D01*
X127623Y787496D01*
X127641Y787485D01*
X127685Y787475D01*
X127854Y787416D01*
X127967Y787412D01*
X128018Y787401D01*
X148823Y787401D01*
X148874Y787408D01*
G37*
G36*
X99582Y903442D02*
X99582Y903442D01*
X99634Y903441D01*
X99713Y903462D01*
X99794Y903475D01*
X99840Y903497D01*
X99890Y903511D01*
X99959Y903555D01*
X100033Y903590D01*
X100071Y903626D01*
X100114Y903653D01*
X100167Y903716D01*
X100227Y903772D01*
X100253Y903817D01*
X100286Y903856D01*
X100319Y903931D01*
X100359Y904002D01*
X100370Y904053D01*
X100391Y904100D01*
X100399Y904182D01*
X100417Y904262D01*
X100413Y904313D01*
X100418Y904365D01*
X100402Y904445D01*
X100395Y904527D01*
X100376Y904575D01*
X100366Y904625D01*
X100338Y904669D01*
X100329Y904692D01*
X100329Y907286D01*
X100326Y907307D01*
X100328Y907328D01*
X100306Y907438D01*
X100289Y907549D01*
X100280Y907568D01*
X100276Y907589D01*
X100252Y907627D01*
X100174Y907789D01*
X100097Y907871D01*
X100069Y907915D01*
X94353Y913631D01*
X94336Y913644D01*
X94322Y913660D01*
X94229Y913722D01*
X94139Y913789D01*
X94119Y913796D01*
X94101Y913807D01*
X94057Y913817D01*
X93888Y913876D01*
X93775Y913880D01*
X93724Y913891D01*
X81273Y913891D01*
X81223Y913884D01*
X81171Y913885D01*
X81092Y913864D01*
X81011Y913851D01*
X80964Y913829D01*
X80914Y913815D01*
X80845Y913771D01*
X80771Y913736D01*
X80734Y913701D01*
X80690Y913673D01*
X80637Y913610D01*
X80577Y913554D01*
X80551Y913510D01*
X80518Y913470D01*
X80486Y913395D01*
X80445Y913324D01*
X80434Y913273D01*
X80414Y913226D01*
X80405Y913144D01*
X80387Y913064D01*
X80392Y913013D01*
X80386Y912961D01*
X80402Y912881D01*
X80409Y912799D01*
X80428Y912751D01*
X80438Y912701D01*
X80466Y912657D01*
X80508Y912552D01*
X80621Y912413D01*
X80645Y912375D01*
X85896Y907124D01*
X85913Y907111D01*
X85927Y907095D01*
X86020Y907033D01*
X86110Y906966D01*
X86130Y906959D01*
X86148Y906948D01*
X86192Y906938D01*
X86361Y906879D01*
X86474Y906875D01*
X86525Y906864D01*
X92959Y906864D01*
X94652Y905171D01*
X94652Y904323D01*
X94667Y904221D01*
X94675Y904119D01*
X94687Y904091D01*
X94692Y904060D01*
X94736Y903968D01*
X94774Y903872D01*
X94794Y903849D01*
X94807Y903821D01*
X94877Y903746D01*
X94942Y903666D01*
X94968Y903649D01*
X94989Y903627D01*
X95078Y903576D01*
X95163Y903519D01*
X95187Y903513D01*
X95219Y903495D01*
X95479Y903437D01*
X95517Y903440D01*
X95540Y903435D01*
X99531Y903435D01*
X99582Y903442D01*
G37*
%LPC*%
G36*
X28777Y972209D02*
X28777Y972209D01*
X28777Y982973D01*
X35541Y982973D01*
X35541Y974415D01*
X35368Y973769D01*
X35033Y973190D01*
X34560Y972717D01*
X33981Y972382D01*
X33335Y972209D01*
X28777Y972209D01*
G37*
%LPD*%
%LPC*%
G36*
X84777Y972209D02*
X84777Y972209D01*
X84777Y982973D01*
X91541Y982973D01*
X91541Y974415D01*
X91368Y973769D01*
X91033Y973190D01*
X90560Y972717D01*
X89981Y972382D01*
X89335Y972209D01*
X84777Y972209D01*
G37*
%LPD*%
%LPC*%
G36*
X118777Y972209D02*
X118777Y972209D01*
X118777Y982973D01*
X125541Y982973D01*
X125541Y974415D01*
X125368Y973769D01*
X125033Y973190D01*
X124560Y972717D01*
X123981Y972382D01*
X123335Y972209D01*
X118777Y972209D01*
G37*
%LPD*%
%LPC*%
G36*
X174777Y972209D02*
X174777Y972209D01*
X174777Y982973D01*
X181541Y982973D01*
X181541Y974415D01*
X181368Y973769D01*
X181033Y973190D01*
X180560Y972717D01*
X179981Y972382D01*
X179335Y972209D01*
X174777Y972209D01*
G37*
%LPD*%
%LPC*%
G36*
X166665Y972209D02*
X166665Y972209D01*
X166019Y972382D01*
X165440Y972717D01*
X164967Y973190D01*
X164632Y973769D01*
X164459Y974415D01*
X164459Y982973D01*
X171223Y982973D01*
X171223Y972209D01*
X166665Y972209D01*
G37*
%LPD*%
%LPC*%
G36*
X110665Y972209D02*
X110665Y972209D01*
X110019Y972382D01*
X109440Y972717D01*
X108967Y973190D01*
X108632Y973769D01*
X108459Y974415D01*
X108459Y982973D01*
X115223Y982973D01*
X115223Y972209D01*
X110665Y972209D01*
G37*
%LPD*%
%LPC*%
G36*
X76665Y972209D02*
X76665Y972209D01*
X76019Y972382D01*
X75440Y972717D01*
X74967Y973190D01*
X74632Y973769D01*
X74459Y974415D01*
X74459Y982973D01*
X81223Y982973D01*
X81223Y972209D01*
X76665Y972209D01*
G37*
%LPD*%
%LPC*%
G36*
X20665Y972209D02*
X20665Y972209D01*
X20019Y972382D01*
X19440Y972717D01*
X18967Y973190D01*
X18632Y973769D01*
X18459Y974415D01*
X18459Y982973D01*
X25223Y982973D01*
X25223Y972209D01*
X20665Y972209D01*
G37*
%LPD*%
%LPC*%
G36*
X181753Y799045D02*
X181753Y799045D01*
X181753Y807559D01*
X184239Y807559D01*
X190267Y801531D01*
X190267Y799045D01*
X181753Y799045D01*
G37*
%LPD*%
%LPC*%
G36*
X181753Y795491D02*
X181753Y795491D01*
X190267Y795491D01*
X190267Y793005D01*
X184239Y786977D01*
X181753Y786977D01*
X181753Y795491D01*
G37*
%LPD*%
%LPC*%
G36*
X42207Y795931D02*
X42207Y795931D01*
X42207Y799997D01*
X52068Y799997D01*
X52714Y799824D01*
X53293Y799489D01*
X53766Y799016D01*
X54101Y798437D01*
X54274Y797791D01*
X54274Y795931D01*
X42207Y795931D01*
G37*
%LPD*%
%LPC*%
G36*
X27094Y795931D02*
X27094Y795931D01*
X27094Y797791D01*
X27267Y798437D01*
X27602Y799016D01*
X28075Y799489D01*
X28654Y799824D01*
X29300Y799997D01*
X39161Y799997D01*
X39161Y795931D01*
X27094Y795931D01*
G37*
%LPD*%
%LPC*%
G36*
X42207Y788819D02*
X42207Y788819D01*
X42207Y792885D01*
X54274Y792885D01*
X54274Y791025D01*
X54101Y790379D01*
X53766Y789800D01*
X53293Y789327D01*
X52714Y788992D01*
X52068Y788819D01*
X42207Y788819D01*
G37*
%LPD*%
%LPC*%
G36*
X29300Y788819D02*
X29300Y788819D01*
X28654Y788992D01*
X28075Y789327D01*
X27602Y789800D01*
X27267Y790379D01*
X27094Y791025D01*
X27094Y792885D01*
X39161Y792885D01*
X39161Y788819D01*
X29300Y788819D01*
G37*
%LPD*%
%LPC*%
G36*
X71499Y949499D02*
X71499Y949499D01*
X71499Y957291D01*
X73335Y957291D01*
X73981Y957118D01*
X74560Y956783D01*
X75033Y956310D01*
X75368Y955731D01*
X75541Y955085D01*
X75541Y949499D01*
X71499Y949499D01*
G37*
%LPD*%
%LPC*%
G36*
X161499Y949499D02*
X161499Y949499D01*
X161499Y957291D01*
X163335Y957291D01*
X163981Y957118D01*
X164560Y956783D01*
X165033Y956310D01*
X165368Y955731D01*
X165541Y955085D01*
X165541Y949499D01*
X161499Y949499D01*
G37*
%LPD*%
%LPC*%
G36*
X161499Y938709D02*
X161499Y938709D01*
X161499Y946501D01*
X165541Y946501D01*
X165541Y940915D01*
X165368Y940269D01*
X165033Y939690D01*
X164560Y939217D01*
X163981Y938882D01*
X163335Y938709D01*
X161499Y938709D01*
G37*
%LPD*%
%LPC*%
G36*
X71499Y938709D02*
X71499Y938709D01*
X71499Y946501D01*
X75541Y946501D01*
X75541Y940915D01*
X75368Y940269D01*
X75033Y939690D01*
X74560Y939217D01*
X73981Y938882D01*
X73335Y938709D01*
X71499Y938709D01*
G37*
%LPD*%
%LPC*%
G36*
X94577Y844224D02*
X94577Y844224D01*
X94577Y849433D01*
X99786Y849433D01*
X99786Y847395D01*
X99537Y846467D01*
X99056Y845634D01*
X98376Y844954D01*
X97543Y844473D01*
X96615Y844224D01*
X94577Y844224D01*
G37*
%LPD*%
%LPC*%
G36*
X88985Y844224D02*
X88985Y844224D01*
X88057Y844473D01*
X87224Y844954D01*
X86544Y845634D01*
X86063Y846467D01*
X85814Y847395D01*
X85814Y849433D01*
X91023Y849433D01*
X91023Y844224D01*
X88985Y844224D01*
G37*
%LPD*%
%LPC*%
G36*
X174587Y884602D02*
X174587Y884602D01*
X174587Y888731D01*
X176646Y888731D01*
X177494Y888503D01*
X178254Y888065D01*
X178875Y887444D01*
X179314Y886683D01*
X179541Y885835D01*
X179541Y884602D01*
X174587Y884602D01*
G37*
%LPD*%
%LPC*%
G36*
X20459Y884602D02*
X20459Y884602D01*
X20459Y885835D01*
X20686Y886683D01*
X21125Y887444D01*
X21746Y888065D01*
X22506Y888503D01*
X23354Y888731D01*
X25413Y888731D01*
X25413Y884602D01*
X20459Y884602D01*
G37*
%LPD*%
%LPC*%
G36*
X174587Y877299D02*
X174587Y877299D01*
X174587Y881428D01*
X179541Y881428D01*
X179541Y880195D01*
X179314Y879347D01*
X178875Y878586D01*
X178254Y877965D01*
X177494Y877527D01*
X176646Y877299D01*
X174587Y877299D01*
G37*
%LPD*%
%LPC*%
G36*
X23354Y877299D02*
X23354Y877299D01*
X22506Y877527D01*
X21746Y877965D01*
X21125Y878586D01*
X20686Y879347D01*
X20459Y880195D01*
X20459Y881428D01*
X25413Y881428D01*
X25413Y877299D01*
X23354Y877299D01*
G37*
%LPD*%
D10*
X96134Y847876D02*
X89466Y847876D01*
X89466Y854544D01*
X96134Y854544D01*
X96134Y847876D01*
X96134Y849988D02*
X89466Y849988D01*
X89466Y852100D02*
X96134Y852100D01*
X96134Y854212D02*
X89466Y854212D01*
X104706Y847876D02*
X111374Y847876D01*
X104706Y847876D02*
X104706Y854544D01*
X111374Y854544D01*
X111374Y847876D01*
X111374Y849988D02*
X104706Y849988D01*
X104706Y852100D02*
X111374Y852100D01*
X111374Y854212D02*
X104706Y854212D01*
D11*
X169794Y894604D02*
X169794Y899366D01*
X176206Y899366D01*
X176206Y894604D01*
X169794Y894604D01*
X169794Y896113D02*
X176206Y896113D01*
X176206Y897622D02*
X169794Y897622D01*
X169794Y899131D02*
X176206Y899131D01*
X169794Y885396D02*
X169794Y880634D01*
X169794Y885396D02*
X176206Y885396D01*
X176206Y880634D01*
X169794Y880634D01*
X169794Y882143D02*
X176206Y882143D01*
X176206Y883652D02*
X169794Y883652D01*
X169794Y885161D02*
X176206Y885161D01*
X23794Y894604D02*
X23794Y899366D01*
X30206Y899366D01*
X30206Y894604D01*
X23794Y894604D01*
X23794Y896113D02*
X30206Y896113D01*
X30206Y897622D02*
X23794Y897622D01*
X23794Y899131D02*
X30206Y899131D01*
X23794Y885396D02*
X23794Y880634D01*
X23794Y885396D02*
X30206Y885396D01*
X30206Y880634D01*
X23794Y880634D01*
X23794Y882143D02*
X30206Y882143D01*
X30206Y883652D02*
X23794Y883652D01*
X23794Y885161D02*
X30206Y885161D01*
D12*
X154576Y848068D03*
X179976Y848068D03*
X154576Y822668D03*
X179976Y822668D03*
X154576Y797268D03*
X179976Y797268D03*
D13*
X160000Y948000D03*
X150000Y948000D03*
X140000Y948000D03*
X130000Y948000D03*
D14*
X117000Y984750D03*
X173000Y984750D03*
D10*
X164072Y886070D02*
X164072Y879402D01*
X157404Y879402D01*
X157404Y886070D01*
X164072Y886070D01*
X164072Y881514D02*
X157404Y881514D01*
X157404Y883626D02*
X164072Y883626D01*
X164072Y885738D02*
X157404Y885738D01*
X164072Y894642D02*
X164072Y901310D01*
X164072Y894642D02*
X157404Y894642D01*
X157404Y901310D01*
X164072Y901310D01*
X164072Y896754D02*
X157404Y896754D01*
X157404Y898866D02*
X164072Y898866D01*
X164072Y900978D02*
X157404Y900978D01*
X43764Y885276D02*
X43764Y878608D01*
X37096Y878608D01*
X37096Y885276D01*
X43764Y885276D01*
X43764Y880720D02*
X37096Y880720D01*
X37096Y882832D02*
X43764Y882832D01*
X43764Y884944D02*
X37096Y884944D01*
X43764Y893848D02*
X43764Y900516D01*
X43764Y893848D02*
X37096Y893848D01*
X37096Y900516D01*
X43764Y900516D01*
X43764Y895960D02*
X37096Y895960D01*
X37096Y898072D02*
X43764Y898072D01*
X43764Y900184D02*
X37096Y900184D01*
X85094Y903974D02*
X91762Y903974D01*
X91762Y897306D01*
X85094Y897306D01*
X85094Y903974D01*
X85094Y899418D02*
X91762Y899418D01*
X91762Y901530D02*
X85094Y901530D01*
X85094Y903642D02*
X91762Y903642D01*
X76522Y903974D02*
X69854Y903974D01*
X76522Y903974D02*
X76522Y897306D01*
X69854Y897306D01*
X69854Y903974D01*
X69854Y899418D02*
X76522Y899418D01*
X76522Y901530D02*
X69854Y901530D01*
X69854Y903642D02*
X76522Y903642D01*
X85316Y889178D02*
X91984Y889178D01*
X91984Y882510D01*
X85316Y882510D01*
X85316Y889178D01*
X85316Y884622D02*
X91984Y884622D01*
X91984Y886734D02*
X85316Y886734D01*
X85316Y888846D02*
X91984Y888846D01*
X76744Y889178D02*
X70076Y889178D01*
X76744Y889178D02*
X76744Y882510D01*
X70076Y882510D01*
X70076Y889178D01*
X70076Y884622D02*
X76744Y884622D01*
X76744Y886734D02*
X70076Y886734D01*
X70076Y888846D02*
X76744Y888846D01*
D15*
X40684Y832508D03*
X40684Y819808D03*
X40684Y807108D03*
X40684Y794408D03*
X107994Y794408D03*
X107994Y807108D03*
X107994Y819808D03*
X107994Y832508D03*
D10*
X19618Y810252D02*
X19618Y803584D01*
X12950Y803584D01*
X12950Y810252D01*
X19618Y810252D01*
X19618Y805696D02*
X12950Y805696D01*
X12950Y807808D02*
X19618Y807808D01*
X19618Y809920D02*
X12950Y809920D01*
X19618Y818824D02*
X19618Y825492D01*
X19618Y818824D02*
X12950Y818824D01*
X12950Y825492D01*
X19618Y825492D01*
X19618Y820936D02*
X12950Y820936D01*
X12950Y823048D02*
X19618Y823048D01*
X19618Y825160D02*
X12950Y825160D01*
D13*
X70000Y948000D03*
X60000Y948000D03*
X50000Y948000D03*
X40000Y948000D03*
D14*
X27000Y984750D03*
X83000Y984750D03*
D10*
X59722Y847820D02*
X53054Y847820D01*
X53054Y854488D01*
X59722Y854488D01*
X59722Y847820D01*
X59722Y849932D02*
X53054Y849932D01*
X53054Y852044D02*
X59722Y852044D01*
X59722Y854156D02*
X53054Y854156D01*
X68294Y847820D02*
X74962Y847820D01*
X68294Y847820D02*
X68294Y854488D01*
X74962Y854488D01*
X74962Y847820D01*
X74962Y849932D02*
X68294Y849932D01*
X68294Y852044D02*
X74962Y852044D01*
X74962Y854156D02*
X68294Y854156D01*
D16*
X165000Y50000D03*
X180000Y100000D03*
X150000Y100000D03*
X150000Y150000D03*
X150000Y200000D03*
X150000Y250000D03*
X150000Y300000D03*
X150000Y350000D03*
X150000Y400000D03*
X150000Y450000D03*
X150000Y500000D03*
X180000Y150000D03*
X180000Y200000D03*
X180000Y250000D03*
X180000Y300000D03*
X180000Y350000D03*
X180000Y400000D03*
X180000Y450000D03*
X180000Y500000D03*
D17*
X180000Y100000D02*
X150000Y100000D01*
X150000Y150000D02*
X180000Y150000D01*
X180000Y200000D02*
X150000Y200000D01*
X150000Y250000D02*
X180000Y250000D01*
X180000Y300000D02*
X150000Y300000D01*
X150000Y350000D02*
X180000Y350000D01*
X180000Y400000D02*
X150000Y400000D01*
X150000Y450000D02*
X180000Y450000D01*
X180000Y500000D02*
X150000Y500000D01*
D18*
X137160Y792808D03*
D19*
X179976Y797268D02*
X179976Y786628D01*
X165000Y771652D01*
D18*
X139192Y861388D03*
X100076Y878406D03*
X139446Y900504D03*
X91948Y910664D03*
X116332Y900250D03*
X100076Y985086D03*
X99822Y953082D03*
D19*
X165000Y583284D02*
X165608Y582676D01*
D18*
X165608Y582676D03*
D19*
X165000Y583284D02*
X165000Y771652D01*
D20*
X40430Y854500D02*
X40430Y881942D01*
X40430Y854500D02*
X24638Y838708D01*
X33124Y819808D02*
X40684Y819808D01*
X24638Y828294D02*
X24638Y838708D01*
X24638Y828294D02*
X33124Y819808D01*
D19*
X16288Y807108D02*
X16284Y806918D01*
D16*
X35000Y50000D03*
X50000Y100000D03*
X20000Y100000D03*
X20000Y150000D03*
X20000Y200000D03*
X20000Y250000D03*
X20000Y300000D03*
X20000Y350000D03*
X20000Y400000D03*
X20000Y450000D03*
X20000Y500000D03*
X50000Y150000D03*
X50000Y200000D03*
X50000Y250000D03*
X50000Y300000D03*
X50000Y350000D03*
X50000Y400000D03*
X50000Y450000D03*
X50000Y500000D03*
D17*
X20000Y500000D01*
X20000Y450000D02*
X50000Y450000D01*
X50000Y400000D02*
X20000Y400000D01*
X20000Y300000D02*
X50000Y300000D01*
X50000Y250000D02*
X20000Y250000D01*
X20000Y200000D02*
X50000Y200000D01*
X50000Y100000D02*
X20000Y100000D01*
X20000Y150000D02*
X50000Y150000D01*
X50000Y350000D02*
X20000Y350000D01*
D21*
X16288Y807108D02*
X40684Y807108D01*
X16284Y806918D02*
X16284Y791972D01*
X35000Y773256D01*
X35000Y583236D01*
X35052Y583184D01*
D18*
X35052Y583184D03*
D20*
X154576Y797268D02*
X150982Y800862D01*
X54714Y832508D02*
X40684Y832508D01*
X86360Y800862D02*
X150982Y800862D01*
X86360Y800862D02*
X54714Y832508D01*
X56388Y851154D02*
X46228Y851154D01*
X40684Y845610D02*
X40684Y832508D01*
X40684Y845610D02*
X46228Y851154D01*
X107994Y794408D02*
X116690Y794408D01*
X126492Y784606D01*
X161036Y784606D01*
X166878Y790448D01*
X166878Y809570D01*
X179976Y822668D01*
X179976Y829166D01*
X167894Y841248D02*
X167894Y859536D01*
X167894Y841248D02*
X179976Y829166D01*
X126016Y901488D02*
X127249Y902721D01*
X140000Y915472D01*
X140000Y948000D01*
X50000Y948000D02*
X50000Y926884D01*
X60198Y916686D01*
X95250Y916686D02*
X105156Y906780D01*
D18*
X105156Y906780D03*
D20*
X95250Y916686D02*
X60198Y916686D01*
X124582Y900054D02*
X126016Y901488D01*
X124582Y900054D02*
X110372Y885844D01*
X88650Y885844D01*
X127249Y900181D02*
X167894Y859536D01*
X127249Y900181D02*
X127249Y902721D01*
X127249Y900181D02*
X124709Y900181D01*
X124582Y900054D01*
D18*
X126016Y901488D03*
D20*
X131064Y819808D02*
X107994Y819808D01*
X131064Y819808D02*
X132334Y819808D01*
X134620Y819808D01*
X151716Y819808D01*
X154576Y822668D01*
X132895Y821639D02*
X131064Y819808D01*
X132895Y821533D02*
X132895Y821639D01*
X132895Y821533D02*
X134620Y819808D01*
X130000Y923544D02*
X130000Y948000D01*
X108204Y900640D02*
X88428Y900640D01*
X132895Y853694D02*
X132895Y821639D01*
X88428Y900640D02*
X76954Y912114D01*
X57404Y912114D01*
X40000Y929518D01*
X40000Y948000D01*
X88428Y900640D02*
X80772Y892984D01*
X80772Y878840D01*
X88011Y871601D01*
X132895Y855165D02*
X132895Y853694D01*
X116459Y871601D02*
X88011Y871601D01*
X116459Y871601D02*
X132895Y855165D01*
X108204Y900640D02*
X130000Y922436D01*
X130000Y923544D01*
D21*
X150000Y945134D02*
X150000Y948000D01*
X150000Y945134D02*
X150000Y893474D01*
X160738Y882736D02*
X179976Y863498D01*
X179976Y848068D01*
X108040Y851210D02*
X108040Y832554D01*
X107994Y832508D01*
X160738Y882736D02*
X150000Y893474D01*
D18*
X150000Y893474D03*
D21*
X108040Y862240D02*
X108040Y851210D01*
X108040Y862240D02*
X107950Y862330D01*
D18*
X107950Y862330D03*
D21*
X16284Y841530D02*
X16284Y822158D01*
X16284Y841530D02*
X31242Y856488D01*
D18*
X31242Y856488D03*
D21*
X60000Y948000D02*
X60000Y957890D01*
X150000Y958202D02*
X150000Y948000D01*
X66040Y963930D02*
X60000Y957890D01*
X66040Y963930D02*
X144272Y963930D01*
X150000Y958202D01*
X107950Y862330D02*
X82804Y862330D01*
X71628Y851154D01*
D20*
X73188Y900640D02*
X62528Y900640D01*
X62484Y900684D01*
D18*
X62484Y900684D03*
D20*
X73410Y885844D02*
X73010Y885444D01*
X62484Y885444D01*
D18*
X62484Y885444D03*
D20*
X161729Y896985D02*
X173000Y896985D01*
X161729Y896985D02*
X160738Y897976D01*
X40233Y896985D02*
X27000Y896985D01*
X40233Y896985D02*
X40430Y897182D01*
X107994Y807108D02*
X143152Y807108D01*
X146558Y810514D01*
X160274Y810514D02*
X167386Y817626D01*
X167386Y835258D01*
X160274Y810514D02*
X146558Y810514D01*
X167386Y835258D02*
X154576Y848068D01*
M02*
