M48
;GenerationSoftware,Autodesk,EAGLE,9.1.1*%
;CreationDate,2018-10-10T06:04:36Z*%
FMAT,2
ICI,OFF
METRIC,TZ,000.000
T3C0.305
T2C0.813
T1C0.950
%
G90
M71
T1
X15458Y82267
X17998Y84807
X15458Y84807
X15458Y79727
X17998Y82267
X17998Y79727
T2
X16500Y5000
X18000Y10000
X15000Y10000
X15000Y15000
X15000Y20000
X15000Y25000
X15000Y30000
X15000Y35000
X15000Y40000
X15000Y45000
X15000Y50000
X18000Y15000
X18000Y20000
X18000Y25000
X18000Y30000
X18000Y35000
X18000Y40000
X18000Y45000
X18000Y50000
X5000Y45000
X5000Y50000
X2000Y10000
X3500Y5000
X5000Y10000
X2000Y45000
X2000Y15000
X2000Y20000
X2000Y25000
X2000Y30000
X2000Y35000
X2000Y40000
X2000Y50000
X5000Y15000
X5000Y20000
X5000Y25000
X5000Y30000
X5000Y35000
X5000Y40000
T3
X13716Y79281
X13919Y86139
X16561Y58268
X3505Y58318
X10516Y90678
X12602Y90149
X15000Y89347
X10795Y86233
X3124Y85649
X9195Y91066
X6248Y88544
X9982Y95308
X10008Y98509
X11633Y90025
X13945Y90050
X10008Y87841
X6248Y90068
M30