G04 EAGLE Gerber RS-274X export*
G75*
%MOMM*%
%FSLAX34Y34*%
%LPD*%
%AMOC8*
5,1,8,0,0,1.08239X$1,22.5*%
G01*
%ADD10P,1.677704X8X292.500000*%
%ADD11R,1.270000X0.635000*%
%ADD12C,0.203200*%
%ADD13C,1.219200*%
%ADD14C,2.000000*%
%ADD15C,0.609600*%
%ADD16C,0.304800*%

G36*
X194006Y769127D02*
X194006Y769127D01*
X194108Y769135D01*
X194136Y769147D01*
X194167Y769152D01*
X194259Y769196D01*
X194355Y769234D01*
X194378Y769254D01*
X194406Y769267D01*
X194481Y769337D01*
X194561Y769402D01*
X194578Y769428D01*
X194600Y769449D01*
X194651Y769538D01*
X194708Y769623D01*
X194714Y769647D01*
X194732Y769679D01*
X194790Y769939D01*
X194787Y769977D01*
X194792Y770000D01*
X194792Y993904D01*
X194777Y994006D01*
X194769Y994108D01*
X194757Y994136D01*
X194752Y994167D01*
X194708Y994259D01*
X194670Y994355D01*
X194650Y994378D01*
X194637Y994406D01*
X194567Y994481D01*
X194502Y994561D01*
X194476Y994578D01*
X194455Y994600D01*
X194366Y994651D01*
X194281Y994708D01*
X194257Y994714D01*
X194225Y994732D01*
X193965Y994790D01*
X193927Y994787D01*
X193904Y994792D01*
X6096Y994792D01*
X5994Y994777D01*
X5892Y994769D01*
X5864Y994757D01*
X5833Y994752D01*
X5741Y994708D01*
X5645Y994670D01*
X5622Y994650D01*
X5594Y994637D01*
X5519Y994567D01*
X5439Y994502D01*
X5422Y994476D01*
X5400Y994455D01*
X5349Y994366D01*
X5292Y994281D01*
X5286Y994257D01*
X5268Y994225D01*
X5210Y993965D01*
X5213Y993927D01*
X5208Y993904D01*
X5208Y770000D01*
X5223Y769898D01*
X5231Y769796D01*
X5243Y769768D01*
X5248Y769737D01*
X5292Y769645D01*
X5330Y769549D01*
X5350Y769526D01*
X5363Y769498D01*
X5433Y769423D01*
X5498Y769343D01*
X5524Y769326D01*
X5545Y769304D01*
X5634Y769253D01*
X5719Y769196D01*
X5743Y769190D01*
X5775Y769172D01*
X6035Y769114D01*
X6073Y769117D01*
X6096Y769112D01*
X193904Y769112D01*
X194006Y769127D01*
G37*
G36*
X35852Y5219D02*
X35852Y5219D01*
X35929Y5221D01*
X35982Y5239D01*
X36038Y5248D01*
X36108Y5281D01*
X36181Y5305D01*
X36227Y5339D01*
X36278Y5363D01*
X36334Y5416D01*
X36396Y5461D01*
X36419Y5495D01*
X36472Y5545D01*
X36604Y5775D01*
X36605Y5781D01*
X36607Y5784D01*
X64736Y80794D01*
X64791Y81054D01*
X64788Y81085D01*
X64792Y81105D01*
X64792Y590000D01*
X64777Y590102D01*
X64769Y590204D01*
X64757Y590232D01*
X64752Y590263D01*
X64708Y590355D01*
X64670Y590451D01*
X64650Y590474D01*
X64637Y590502D01*
X64567Y590577D01*
X64502Y590657D01*
X64476Y590674D01*
X64455Y590696D01*
X64366Y590747D01*
X64281Y590804D01*
X64257Y590810D01*
X64225Y590828D01*
X63965Y590886D01*
X63927Y590883D01*
X63904Y590888D01*
X6096Y590888D01*
X5994Y590873D01*
X5892Y590865D01*
X5864Y590853D01*
X5833Y590848D01*
X5741Y590804D01*
X5645Y590766D01*
X5622Y590746D01*
X5594Y590733D01*
X5519Y590663D01*
X5439Y590598D01*
X5422Y590572D01*
X5400Y590551D01*
X5349Y590462D01*
X5292Y590377D01*
X5286Y590353D01*
X5268Y590321D01*
X5210Y590061D01*
X5213Y590023D01*
X5208Y590000D01*
X5208Y81105D01*
X5248Y80843D01*
X5261Y80814D01*
X5264Y80794D01*
X33393Y5784D01*
X33430Y5717D01*
X33459Y5645D01*
X33495Y5601D01*
X33522Y5552D01*
X33578Y5499D01*
X33627Y5439D01*
X33674Y5408D01*
X33715Y5369D01*
X33784Y5334D01*
X33848Y5292D01*
X33888Y5283D01*
X33953Y5250D01*
X34215Y5208D01*
X34221Y5209D01*
X34225Y5208D01*
X35775Y5208D01*
X35852Y5219D01*
G37*
G36*
X165852Y5219D02*
X165852Y5219D01*
X165929Y5221D01*
X165982Y5239D01*
X166038Y5248D01*
X166108Y5281D01*
X166181Y5305D01*
X166227Y5339D01*
X166278Y5363D01*
X166334Y5416D01*
X166396Y5461D01*
X166419Y5495D01*
X166472Y5545D01*
X166604Y5775D01*
X166605Y5781D01*
X166607Y5784D01*
X194736Y80794D01*
X194791Y81054D01*
X194788Y81085D01*
X194792Y81105D01*
X194792Y590000D01*
X194777Y590102D01*
X194769Y590204D01*
X194757Y590232D01*
X194752Y590263D01*
X194708Y590355D01*
X194670Y590451D01*
X194650Y590474D01*
X194637Y590502D01*
X194567Y590577D01*
X194502Y590657D01*
X194476Y590674D01*
X194455Y590696D01*
X194366Y590747D01*
X194281Y590804D01*
X194257Y590810D01*
X194225Y590828D01*
X193965Y590886D01*
X193927Y590883D01*
X193904Y590888D01*
X136096Y590888D01*
X135994Y590873D01*
X135892Y590865D01*
X135864Y590853D01*
X135833Y590848D01*
X135741Y590804D01*
X135645Y590766D01*
X135622Y590746D01*
X135594Y590733D01*
X135519Y590663D01*
X135439Y590598D01*
X135422Y590572D01*
X135400Y590551D01*
X135349Y590462D01*
X135292Y590377D01*
X135286Y590353D01*
X135268Y590321D01*
X135210Y590061D01*
X135213Y590023D01*
X135208Y590000D01*
X135208Y81105D01*
X135248Y80843D01*
X135261Y80814D01*
X135264Y80794D01*
X163393Y5784D01*
X163430Y5717D01*
X163459Y5645D01*
X163495Y5601D01*
X163522Y5552D01*
X163578Y5499D01*
X163627Y5439D01*
X163674Y5408D01*
X163715Y5369D01*
X163784Y5334D01*
X163848Y5292D01*
X163888Y5283D01*
X163953Y5250D01*
X164215Y5208D01*
X164221Y5209D01*
X164225Y5208D01*
X165775Y5208D01*
X165852Y5219D01*
G37*
%LPC*%
G36*
X29243Y851661D02*
X29243Y851661D01*
X26415Y854489D01*
X26415Y858487D01*
X29243Y861315D01*
X33241Y861315D01*
X34505Y860051D01*
X34522Y860038D01*
X34535Y860022D01*
X34629Y859960D01*
X34719Y859893D01*
X34739Y859886D01*
X34756Y859875D01*
X34801Y859865D01*
X34970Y859806D01*
X35083Y859802D01*
X35133Y859791D01*
X100372Y859791D01*
X100393Y859794D01*
X100414Y859792D01*
X100524Y859814D01*
X100635Y859831D01*
X100654Y859840D01*
X100674Y859844D01*
X100713Y859868D01*
X100874Y859946D01*
X100957Y860023D01*
X101000Y860051D01*
X102863Y861914D01*
X102876Y861931D01*
X102892Y861944D01*
X102954Y862038D01*
X103021Y862128D01*
X103028Y862148D01*
X103039Y862165D01*
X103049Y862210D01*
X103108Y862379D01*
X103112Y862492D01*
X103123Y862542D01*
X103123Y864329D01*
X104387Y865593D01*
X104400Y865610D01*
X104416Y865623D01*
X104478Y865717D01*
X104545Y865807D01*
X104552Y865827D01*
X104563Y865844D01*
X104573Y865889D01*
X104632Y866058D01*
X104636Y866171D01*
X104647Y866221D01*
X104647Y887538D01*
X104644Y887559D01*
X104646Y887580D01*
X104624Y887690D01*
X104607Y887801D01*
X104598Y887820D01*
X104594Y887840D01*
X104570Y887879D01*
X104492Y888040D01*
X104415Y888123D01*
X104387Y888166D01*
X103540Y889013D01*
X103523Y889026D01*
X103510Y889042D01*
X103416Y889104D01*
X103326Y889171D01*
X103306Y889178D01*
X103289Y889189D01*
X103244Y889199D01*
X103075Y889258D01*
X102962Y889262D01*
X102912Y889273D01*
X88737Y889273D01*
X88635Y889258D01*
X88533Y889250D01*
X88505Y889238D01*
X88474Y889233D01*
X88382Y889189D01*
X88286Y889151D01*
X88263Y889131D01*
X88235Y889118D01*
X88160Y889048D01*
X88080Y888983D01*
X88063Y888957D01*
X88041Y888936D01*
X87990Y888847D01*
X87933Y888762D01*
X87927Y888738D01*
X87909Y888706D01*
X87851Y888446D01*
X87854Y888408D01*
X87849Y888385D01*
X87849Y880536D01*
X86807Y879494D01*
X72633Y879494D01*
X71591Y880536D01*
X71591Y880765D01*
X71576Y880867D01*
X71568Y880969D01*
X71556Y880997D01*
X71551Y881028D01*
X71507Y881120D01*
X71469Y881216D01*
X71449Y881239D01*
X71436Y881267D01*
X71366Y881342D01*
X71301Y881422D01*
X71275Y881439D01*
X71254Y881461D01*
X71165Y881512D01*
X71080Y881569D01*
X71056Y881575D01*
X71024Y881593D01*
X70764Y881651D01*
X70726Y881648D01*
X70703Y881653D01*
X65887Y881653D01*
X65867Y881650D01*
X65846Y881652D01*
X65735Y881630D01*
X65624Y881613D01*
X65606Y881604D01*
X65585Y881600D01*
X65546Y881576D01*
X65385Y881498D01*
X65303Y881421D01*
X65259Y881393D01*
X64483Y880617D01*
X60485Y880617D01*
X57657Y883445D01*
X57657Y887443D01*
X60485Y890271D01*
X64483Y890271D01*
X67251Y887503D01*
X67265Y887493D01*
X67275Y887480D01*
X67278Y887479D01*
X67281Y887474D01*
X67375Y887412D01*
X67465Y887345D01*
X67485Y887338D01*
X67502Y887327D01*
X67547Y887317D01*
X67716Y887258D01*
X67829Y887254D01*
X67879Y887243D01*
X70703Y887243D01*
X70805Y887258D01*
X70907Y887266D01*
X70935Y887278D01*
X70966Y887283D01*
X71058Y887327D01*
X71154Y887365D01*
X71177Y887385D01*
X71205Y887398D01*
X71280Y887468D01*
X71360Y887533D01*
X71377Y887559D01*
X71399Y887580D01*
X71450Y887669D01*
X71507Y887754D01*
X71513Y887778D01*
X71531Y887810D01*
X71589Y888070D01*
X71589Y888074D01*
X71589Y888076D01*
X71586Y888109D01*
X71591Y888131D01*
X71591Y897021D01*
X71576Y897123D01*
X71568Y897225D01*
X71556Y897253D01*
X71551Y897284D01*
X71507Y897376D01*
X71469Y897472D01*
X71449Y897495D01*
X71436Y897523D01*
X71366Y897598D01*
X71301Y897678D01*
X71275Y897695D01*
X71254Y897717D01*
X71165Y897768D01*
X71080Y897825D01*
X71056Y897831D01*
X71024Y897849D01*
X70764Y897907D01*
X70726Y897904D01*
X70703Y897909D01*
X66903Y897909D01*
X66883Y897906D01*
X66862Y897908D01*
X66751Y897886D01*
X66640Y897869D01*
X66622Y897860D01*
X66601Y897856D01*
X66562Y897832D01*
X66401Y897754D01*
X66319Y897677D01*
X66275Y897649D01*
X64483Y895857D01*
X60485Y895857D01*
X57657Y898685D01*
X57657Y902683D01*
X60485Y905511D01*
X64483Y905511D01*
X66235Y903759D01*
X66252Y903746D01*
X66265Y903730D01*
X66359Y903668D01*
X66449Y903601D01*
X66469Y903594D01*
X66486Y903583D01*
X66531Y903573D01*
X66700Y903514D01*
X66813Y903510D01*
X66863Y903499D01*
X70703Y903499D01*
X70805Y903514D01*
X70907Y903522D01*
X70935Y903534D01*
X70966Y903539D01*
X71058Y903583D01*
X71154Y903621D01*
X71177Y903641D01*
X71205Y903654D01*
X71280Y903724D01*
X71360Y903789D01*
X71377Y903815D01*
X71399Y903836D01*
X71450Y903925D01*
X71507Y904010D01*
X71513Y904034D01*
X71531Y904066D01*
X71589Y904326D01*
X71586Y904364D01*
X71591Y904387D01*
X71591Y904616D01*
X72633Y905658D01*
X86807Y905658D01*
X87849Y904616D01*
X87849Y896767D01*
X87864Y896665D01*
X87872Y896563D01*
X87884Y896535D01*
X87889Y896504D01*
X87933Y896412D01*
X87971Y896316D01*
X87991Y896293D01*
X88004Y896265D01*
X88074Y896190D01*
X88139Y896110D01*
X88165Y896093D01*
X88186Y896071D01*
X88275Y896020D01*
X88360Y895963D01*
X88384Y895957D01*
X88416Y895939D01*
X88676Y895881D01*
X88714Y895884D01*
X88737Y895879D01*
X122655Y895879D01*
X122706Y895886D01*
X122757Y895885D01*
X122837Y895906D01*
X122918Y895919D01*
X122964Y895941D01*
X123014Y895955D01*
X123083Y895999D01*
X123157Y896034D01*
X123195Y896069D01*
X123238Y896097D01*
X123291Y896160D01*
X123351Y896216D01*
X123377Y896260D01*
X123410Y896300D01*
X123443Y896375D01*
X123483Y896446D01*
X123494Y896497D01*
X123515Y896544D01*
X123523Y896626D01*
X123541Y896706D01*
X123537Y896757D01*
X123542Y896809D01*
X123526Y896889D01*
X123519Y896971D01*
X123500Y897019D01*
X123490Y897069D01*
X123462Y897113D01*
X123420Y897218D01*
X123307Y897357D01*
X123283Y897395D01*
X121189Y899489D01*
X121189Y901994D01*
X121186Y902015D01*
X121188Y902036D01*
X121166Y902146D01*
X121149Y902257D01*
X121140Y902276D01*
X121136Y902297D01*
X121112Y902335D01*
X121034Y902497D01*
X120957Y902579D01*
X120929Y902623D01*
X119827Y903725D01*
X119810Y903738D01*
X119796Y903754D01*
X119703Y903816D01*
X119613Y903883D01*
X119593Y903890D01*
X119575Y903901D01*
X119531Y903911D01*
X119362Y903970D01*
X119249Y903974D01*
X119198Y903985D01*
X109555Y903985D01*
X109535Y903982D01*
X109514Y903984D01*
X109403Y903962D01*
X109292Y903945D01*
X109274Y903936D01*
X109253Y903932D01*
X109214Y903908D01*
X109053Y903830D01*
X108971Y903753D01*
X108927Y903725D01*
X107155Y901953D01*
X103157Y901953D01*
X100329Y904781D01*
X100329Y908779D01*
X103157Y911607D01*
X107155Y911607D01*
X108927Y909835D01*
X108944Y909822D01*
X108957Y909806D01*
X109051Y909744D01*
X109141Y909677D01*
X109161Y909670D01*
X109178Y909659D01*
X109223Y909649D01*
X109392Y909590D01*
X109505Y909586D01*
X109555Y909575D01*
X121882Y909575D01*
X124881Y906575D01*
X124898Y906562D01*
X124912Y906546D01*
X125005Y906484D01*
X125095Y906417D01*
X125115Y906410D01*
X125133Y906399D01*
X125177Y906389D01*
X125346Y906330D01*
X125459Y906326D01*
X125510Y906315D01*
X128015Y906315D01*
X130843Y903487D01*
X130843Y899489D01*
X128749Y897395D01*
X128718Y897354D01*
X128681Y897318D01*
X128640Y897247D01*
X128591Y897181D01*
X128574Y897132D01*
X128549Y897088D01*
X128531Y897008D01*
X128504Y896930D01*
X128502Y896878D01*
X128491Y896828D01*
X128498Y896746D01*
X128495Y896664D01*
X128508Y896615D01*
X128513Y896563D01*
X128543Y896487D01*
X128565Y896408D01*
X128592Y896364D01*
X128612Y896316D01*
X128663Y896253D01*
X128707Y896184D01*
X128747Y896150D01*
X128779Y896110D01*
X128848Y896065D01*
X128910Y896012D01*
X128957Y895991D01*
X129000Y895963D01*
X129051Y895951D01*
X129154Y895907D01*
X129333Y895889D01*
X129377Y895879D01*
X145211Y895879D01*
X145231Y895882D01*
X145252Y895880D01*
X145363Y895902D01*
X145474Y895919D01*
X145492Y895928D01*
X145513Y895932D01*
X145552Y895956D01*
X145713Y896034D01*
X145795Y896111D01*
X145839Y896139D01*
X148001Y898301D01*
X151999Y898301D01*
X154827Y895473D01*
X154827Y891475D01*
X151999Y888647D01*
X148001Y888647D01*
X147635Y889013D01*
X147618Y889026D01*
X147605Y889042D01*
X147511Y889104D01*
X147421Y889171D01*
X147401Y889178D01*
X147384Y889189D01*
X147339Y889199D01*
X147170Y889258D01*
X147057Y889262D01*
X147007Y889273D01*
X112988Y889273D01*
X112967Y889270D01*
X112946Y889272D01*
X112836Y889250D01*
X112725Y889233D01*
X112706Y889224D01*
X112686Y889220D01*
X112647Y889196D01*
X112486Y889118D01*
X112403Y889041D01*
X112360Y889013D01*
X111513Y888166D01*
X111500Y888149D01*
X111484Y888136D01*
X111422Y888042D01*
X111355Y887952D01*
X111348Y887932D01*
X111337Y887915D01*
X111327Y887870D01*
X111268Y887701D01*
X111264Y887588D01*
X111253Y887538D01*
X111253Y866221D01*
X111256Y866201D01*
X111254Y866180D01*
X111276Y866069D01*
X111293Y865958D01*
X111302Y865940D01*
X111306Y865919D01*
X111330Y865880D01*
X111408Y865719D01*
X111485Y865637D01*
X111513Y865593D01*
X112777Y864329D01*
X112777Y860331D01*
X109949Y857503D01*
X108162Y857503D01*
X108141Y857500D01*
X108120Y857502D01*
X108010Y857480D01*
X107899Y857463D01*
X107880Y857454D01*
X107860Y857450D01*
X107821Y857426D01*
X107660Y857348D01*
X107577Y857271D01*
X107534Y857243D01*
X103476Y853185D01*
X35133Y853185D01*
X35113Y853182D01*
X35092Y853184D01*
X34981Y853162D01*
X34870Y853145D01*
X34852Y853136D01*
X34831Y853132D01*
X34792Y853108D01*
X34631Y853030D01*
X34549Y852953D01*
X34505Y852925D01*
X33241Y851661D01*
X29243Y851661D01*
G37*
%LPD*%
%LPC*%
G36*
X176029Y838539D02*
X176029Y838539D01*
X170447Y844121D01*
X170447Y852015D01*
X176029Y857597D01*
X183923Y857597D01*
X189505Y852015D01*
X189505Y844121D01*
X183923Y838539D01*
X176029Y838539D01*
G37*
%LPD*%
%LPC*%
G36*
X150629Y838539D02*
X150629Y838539D01*
X145047Y844121D01*
X145047Y852015D01*
X150629Y857597D01*
X158523Y857597D01*
X164105Y852015D01*
X164105Y844121D01*
X158523Y838539D01*
X150629Y838539D01*
G37*
%LPD*%
%LPC*%
G36*
X176029Y813139D02*
X176029Y813139D01*
X170447Y818721D01*
X170447Y826615D01*
X176029Y832197D01*
X183923Y832197D01*
X189505Y826615D01*
X189505Y818721D01*
X183923Y813139D01*
X176029Y813139D01*
G37*
%LPD*%
%LPC*%
G36*
X150629Y813139D02*
X150629Y813139D01*
X145047Y818721D01*
X145047Y826615D01*
X150629Y832197D01*
X158523Y832197D01*
X164105Y826615D01*
X164105Y818721D01*
X158523Y813139D01*
X150629Y813139D01*
G37*
%LPD*%
%LPC*%
G36*
X150629Y787739D02*
X150629Y787739D01*
X145047Y793321D01*
X145047Y801215D01*
X150629Y806797D01*
X158523Y806797D01*
X164105Y801215D01*
X164105Y793321D01*
X158523Y787739D01*
X150629Y787739D01*
G37*
%LPD*%
%LPC*%
G36*
X181753Y799045D02*
X181753Y799045D01*
X181753Y807559D01*
X184239Y807559D01*
X190267Y801531D01*
X190267Y799045D01*
X181753Y799045D01*
G37*
%LPD*%
%LPC*%
G36*
X181753Y795491D02*
X181753Y795491D01*
X190267Y795491D01*
X190267Y793005D01*
X184239Y786977D01*
X181753Y786977D01*
X181753Y795491D01*
G37*
%LPD*%
%LPC*%
G36*
X169685Y799045D02*
X169685Y799045D01*
X169685Y801531D01*
X175713Y807559D01*
X178199Y807559D01*
X178199Y799045D01*
X169685Y799045D01*
G37*
%LPD*%
%LPC*%
G36*
X175713Y786977D02*
X175713Y786977D01*
X169685Y793005D01*
X169685Y795491D01*
X178199Y795491D01*
X178199Y786977D01*
X175713Y786977D01*
G37*
%LPD*%
%LPC*%
G36*
X179975Y797267D02*
X179975Y797267D01*
X179975Y797269D01*
X179977Y797269D01*
X179977Y797267D01*
X179975Y797267D01*
G37*
%LPD*%
D10*
X154576Y848068D03*
X179976Y848068D03*
X154576Y822668D03*
X179976Y822668D03*
X154576Y797268D03*
X179976Y797268D03*
D11*
X79720Y884448D03*
X79720Y892576D03*
X79720Y900704D03*
D12*
X79720Y892576D02*
X79720Y884194D01*
X79720Y892576D02*
X79720Y901212D01*
D13*
X165000Y50000D03*
X180000Y100000D03*
X150000Y100000D03*
X150000Y150000D03*
X150000Y200000D03*
X150000Y250000D03*
X150000Y300000D03*
X150000Y350000D03*
X150000Y400000D03*
X150000Y450000D03*
X150000Y500000D03*
X180000Y150000D03*
X180000Y200000D03*
X180000Y250000D03*
X180000Y300000D03*
X180000Y350000D03*
X180000Y400000D03*
X180000Y450000D03*
X180000Y500000D03*
D14*
X150000Y500000D01*
X150000Y450000D02*
X180000Y450000D01*
X180000Y400000D02*
X150000Y400000D01*
X150000Y350000D02*
X180000Y350000D01*
X180000Y300000D02*
X150000Y300000D01*
X150000Y250000D02*
X180000Y250000D01*
X180000Y200000D02*
X150000Y200000D01*
X150000Y150000D02*
X180000Y150000D01*
X180000Y100000D02*
X150000Y100000D01*
D15*
X137160Y792808D03*
X139192Y861388D03*
X100076Y878406D03*
X139446Y900504D03*
X91948Y910664D03*
X116332Y900250D03*
X100076Y985086D03*
X99822Y953082D03*
X165608Y582676D03*
D13*
X35000Y50000D03*
X50000Y100000D03*
X20000Y100000D03*
X20000Y150000D03*
X20000Y200000D03*
X20000Y250000D03*
X20000Y300000D03*
X20000Y350000D03*
X20000Y400000D03*
X20000Y450000D03*
X20000Y500000D03*
X50000Y150000D03*
X50000Y200000D03*
X50000Y250000D03*
X50000Y300000D03*
X50000Y350000D03*
X50000Y400000D03*
X50000Y450000D03*
X50000Y500000D03*
D14*
X50000Y250000D02*
X20000Y250000D01*
X20000Y200000D02*
X50000Y200000D01*
X50000Y300000D02*
X20000Y300000D01*
X20000Y400000D02*
X50000Y400000D01*
X50000Y450000D02*
X20000Y450000D01*
X20000Y500000D02*
X50000Y500000D01*
X50000Y350000D02*
X20000Y350000D01*
X20000Y150000D02*
X50000Y150000D01*
X50000Y100000D02*
X20000Y100000D01*
D15*
X35052Y583184D03*
X105156Y906780D03*
D12*
X120724Y906780D01*
X126016Y901488D01*
D15*
X126016Y901488D03*
X150000Y893474D03*
D16*
X105410Y892576D02*
X79720Y892576D01*
X105410Y892576D02*
X111252Y892576D01*
X149102Y892576D01*
X150000Y893474D01*
D15*
X107950Y862330D03*
D16*
X107950Y889274D01*
X111252Y892576D01*
X107950Y889274D02*
X105410Y891814D01*
X105410Y892576D01*
D15*
X31242Y856488D03*
D16*
X102108Y856488D01*
X107950Y862330D01*
D15*
X62484Y900684D03*
D12*
X62504Y900704D02*
X79720Y900704D01*
X62504Y900704D02*
X62484Y900684D01*
D15*
X62484Y885444D03*
D12*
X63480Y884448D02*
X79720Y884448D01*
X63480Y884448D02*
X62484Y885444D01*
M02*
